<?xml version="1.0" encoding="UTF-8"?>
<svg version="1.1" xmlns="http://www.w3.org/2000/svg" width="480" height="366">
<path d="M0 0 C4.51645264 0.03551914 9.03286743 0.02808479 13.54943132 0.02655697 C21.12282593 0.03028456 28.69557324 0.0647705 36.26876116 0.11963558 C44.99922604 0.18265466 53.72898544 0.2036222 62.45966136 0.20069337 C71.80162916 0.19798383 81.14332875 0.225773 90.48521519 0.26247978 C93.15902953 0.27096599 95.83280005 0.27383903 98.50662661 0.27543545 C102.71772474 0.27947866 106.92824019 0.30410108 111.13914537 0.3441 C112.67610777 0.35569461 114.21313726 0.36072305 115.75014162 0.35838985 C124.70932961 0.34994194 132.29191953 1.16594104 140.52217913 4.94287777 C141.58878456 5.40567843 141.58878456 5.40567843 142.67693758 5.8778286 C144.49854041 6.67472223 146.29164721 7.51736608 148.08467913 8.37647152 C148.75022814 8.69053951 149.41577715 9.00460751 150.10149431 9.32819271 C152.24401754 10.34082297 154.38312105 11.36045112 156.52217913 12.38037777 C158.03519598 13.09728251 159.54838214 13.81383004 161.06172991 14.53003597 C171.29371838 19.37877526 181.49509859 24.29047964 191.68721819 29.22241879 C199.51285033 33.00069176 207.38162074 36.67740071 215.27217913 40.31787777 C225.52925517 45.0533051 235.72971308 49.89356172 245.89717913 54.81787777 C246.53167986 55.1248962 247.16618059 55.43191463 247.81990862 55.74823666 C252.05981001 57.80132152 256.29258107 59.86862629 260.52217913 61.94287777 C261.15386003 62.25125576 261.78554094 62.55963375 262.4363637 62.87735653 C264.3342614 63.80513712 266.22932066 64.73849075 268.12374163 65.67334652 C269.23314104 66.21886166 270.34254045 66.76437679 271.48555803 67.32642269 C280.50637715 72.12838791 286.27399163 78.42095902 291.39717913 87.13037777 C293.58275658 94.53705692 293.80351437 102.08701326 290.52217913 109.19287777 C284.32073008 119.80920882 276.28284945 125.45013426 265.52217913 130.94287777 C264.92969378 131.25015804 264.33720842 131.55743832 263.72676897 131.87403011 C257.43247705 135.13041016 251.0578906 138.22084935 244.65523577 141.25781918 C231.27489784 147.61131274 218.00014996 154.16150756 204.75655413 160.79444027 C203.88794064 161.22945858 203.01932714 161.66447689 202.12439203 162.11267757 C195.8388901 165.26156002 189.55536917 168.41438542 183.27217913 171.56787777 C176.91502562 174.7583227 170.55717801 177.94737013 164.19766283 181.13310528 C161.67916933 182.39557179 159.16189723 183.66044996 156.64467669 184.92545223 C155.10878581 185.69521277 153.57283918 186.46486209 152.03682756 187.23438168 C151.34602098 187.58236813 150.65521441 187.93035458 149.94347429 188.28888607 C143.87903616 191.32143712 139.53953029 193.1919136 132.68619585 193.20357418 C132.01110969 193.20739973 131.33602353 193.21122527 130.64048022 193.21516675 C128.38522768 193.22546028 126.13023148 193.22151155 123.87496233 193.21753597 C122.25500043 193.22188462 120.63504058 193.22706828 119.01508379 193.23302364 C114.61813126 193.24641236 110.2212647 193.24699217 105.82429576 193.24446034 C102.14917997 193.24338997 98.47408152 193.24827601 94.79896945 193.25306576 C86.12311533 193.26416175 77.44730449 193.26459866 68.7714467 193.2585516 C59.83568611 193.25251881 50.90008325 193.26480493 41.96434957 193.28612167 C34.28261719 193.30376988 26.60093485 193.30973372 18.91918296 193.30648392 C14.33580389 193.30467514 9.75253721 193.30726621 5.16917658 193.32119846 C0.85417794 193.33382367 -3.46057623 193.33178856 -7.77557135 193.31878757 C-9.35329476 193.31643196 -10.93103561 193.31911984 -12.50873899 193.3274107 C-24.26616047 193.3847065 -33.64418688 191.73834442 -44.08328962 186.31787777 C-44.76087324 185.97486629 -45.43845686 185.63185482 -46.13657331 185.27844906 C-47.5742742 184.54972717 -49.01017522 183.81744447 -50.44434309 183.08179379 C-54.24391257 181.13337694 -58.05734389 179.21235881 -61.86844587 177.28662777 C-62.62076994 176.90550838 -63.37309401 176.524389 -64.14821577 176.13172054 C-70.03265872 173.15422325 -75.95459973 170.26482953 -81.91532087 167.44287777 C-92.8738948 162.24507986 -103.78645841 156.95562891 -114.69046736 151.64453793 C-116.19767976 150.91058871 -117.70492282 150.17670243 -119.21219587 149.44287777 C-120.34396002 148.89184887 -120.34396002 148.89184887 -121.49858809 148.32968807 C-126.22858107 146.02935499 -130.96591481 143.74491654 -135.70932722 141.47238827 C-138.87376073 139.95591181 -142.03577597 138.43442921 -145.19766951 136.91266537 C-146.69412135 136.19416179 -148.19172748 135.47805633 -149.69058943 134.76459408 C-180.97233981 119.87025349 -180.97233981 119.87025349 -186.88797712 106.23975277 C-188.54678194 99.78030091 -188.66192835 92.61193898 -185.79032087 86.50537777 C-185.05709707 85.29429432 -184.28771759 84.1040873 -183.47782087 82.94287777 C-182.79719587 81.95287777 -182.11657087 80.96287777 -181.41532087 79.94287777 C-172.44557077 70.04704727 -159.62726978 64.6546307 -147.93924665 58.72046566 C-143.80739179 56.5985842 -139.70141452 54.4298822 -135.59500837 52.25928402 C-124.98257679 46.65635149 -114.29583994 41.20247468 -103.60282087 35.75537777 C-99.6309534 33.73034118 -95.65964134 31.70421916 -91.68875837 29.67725277 C-90.72014875 29.18282177 -89.75153913 28.68839077 -88.75357771 28.17897701 C-83.06057659 25.27026266 -77.37632205 22.3455728 -71.70438337 19.39600277 C-71.05063734 19.05626934 -70.39689131 18.71653591 -69.72333479 18.36650753 C-66.81232102 16.85281665 -63.90348814 15.33526856 -60.9978404 13.81128597 C-58.97965224 12.75956979 -56.94943784 11.73051953 -54.90634871 10.72803402 C-51.47233752 9.01971795 -51.47233752 9.01971795 -48.4379344 6.90752316 C-34.02621236 -2.12742192 -16.34242121 -0.15587726 0 0 Z M-41.47782087 13.94287777 C-42.48707624 14.42257015 -43.49633162 14.90226254 -44.53617048 15.39649105 C-45.82019758 16.07300716 -45.82019758 16.07300716 -47.13016462 16.76319027 C-48.13514997 17.28888607 -49.14013533 17.81458187 -50.17557478 18.35620785 C-51.24469099 18.92105892 -52.3138072 19.48591 -53.41532087 20.06787777 C-55.19326983 20.99845908 -56.9712346 21.92901067 -58.74973249 22.85854244 C-60.01030056 23.51747388 -61.27059015 24.17693833 -62.53061628 24.83690548 C-69.46633988 28.46766834 -76.42918558 32.04530084 -83.39343977 35.62094784 C-86.3620793 37.14522698 -89.33001273 38.67087837 -92.29796553 40.1964941 C-93.79337023 40.96517415 -95.28880279 41.73380001 -96.78426313 42.50237179 C-101.91187203 45.13764476 -107.03894597 47.77395509 -112.16532087 50.41162777 C-113.22201475 50.9553075 -113.22201475 50.9553075 -114.30005598 51.50997066 C-117.77207469 53.29684128 -121.24320607 55.08540486 -124.71268415 56.87720394 C-126.05366125 57.5696797 -127.39464426 58.26214403 -128.73563337 58.95459652 C-129.3871034 59.29105694 -130.03857344 59.62751736 -130.70978498 59.97417355 C-134.46831505 61.91318187 -138.23354697 63.83818415 -142.00635481 65.749259 C-144.83327023 67.1827282 -147.65481587 68.6267263 -150.47782087 70.06787777 C-151.96306257 70.81194881 -151.96306257 70.81194881 -153.47830915 71.5710516 C-161.35837226 75.61233765 -168.70825212 80.36925319 -174.47782087 87.19287777 C-175.03469587 87.83740902 -175.59157087 88.48194027 -176.16532087 89.14600277 C-178.90189546 92.89250369 -178.91922713 96.45524751 -178.47782087 100.94287777 C-173.06677607 114.14054802 -159.34272953 119.97568999 -147.35282087 125.75537777 C-145.71512868 126.55777066 -144.07800809 127.36133119 -142.44144392 128.1660223 C-137.79623172 130.44445627 -133.13918367 132.69770754 -128.47782087 134.94287777 C-127.40129255 135.46253109 -126.32476423 135.98218441 -125.21561384 136.5175848 C-121.71159338 138.20511711 -118.20400867 139.88470809 -114.68973494 141.55078793 C-105.85417597 145.74057313 -97.06801885 150.02991303 -88.28180647 154.32190609 C-85.61502739 155.62441586 -82.94774453 156.92588833 -80.28031111 158.22705746 C-72.55044844 161.99824768 -64.82186628 165.77189439 -57.10175276 169.56301022 C-54.06625994 171.05251382 -51.02860204 172.53756234 -47.99045515 174.02164364 C-46.58110582 174.71142925 -45.17275429 175.40325784 -43.76547956 176.0972662 C-41.82575946 177.05365638 -39.88270503 178.00292735 -37.93875837 178.95069027 C-36.85385115 179.48323421 -35.76894392 180.01577816 -34.65116072 180.5644598 C-28.73363022 183.13488427 -23.40229727 184.19904822 -16.96048689 184.31275082 C-16.24389402 184.3274995 -15.52730116 184.34224819 -14.78899336 184.35744381 C-12.43658397 184.40165848 -10.08442102 184.4301267 -7.73172712 184.45459652 C-6.51359988 184.46869533 -6.51359988 184.46869533 -5.27086401 184.48307896 C-0.96658273 184.53052686 3.33757933 184.56424574 7.64205217 184.58814144 C12.04359962 184.615725 16.4426253 184.69480585 20.84325361 184.78568459 C24.26582614 184.84608694 27.68782325 184.86546602 31.11088037 184.87465 C32.73062613 184.88609136 34.35035042 184.91254809 35.96956491 184.9555788 C47.89633665 185.25358007 55.75691724 182.72176795 65.70307398 176.13354588 C68.19310071 174.50373607 70.74965675 172.99615198 73.31247282 171.48436832 C75.14855288 170.39982539 76.9740134 169.2988158 78.79756975 168.19336605 C82.53278123 165.93276707 86.28312151 163.69829624 90.03780413 161.47022152 C90.66293901 161.09909237 91.2880739 160.72796322 91.93215227 160.34558773 C93.21610296 159.58349929 94.50014138 158.82155864 95.78426409 158.05976009 C97.8472278 156.83585319 99.9098252 155.61133066 101.97237444 154.38672543 C108.51648064 150.5019525 115.06280746 146.6210193 121.61592913 142.75147152 C127.11665065 139.5027152 132.61147118 136.24421924 138.10128069 132.97705746 C140.48711216 131.55836292 142.87431949 130.14222246 145.26339006 128.72901058 C148.44987789 126.84301102 151.62982753 124.94636447 154.8059926 123.04303646 C156.00995492 122.32363645 157.21585824 121.60747235 158.42391253 120.89496517 C172.65081245 112.92549827 172.65081245 112.92549827 181.52217913 99.94287777 C182.19693302 93.87009271 181.37679604 89.84557783 177.52217913 84.94287777 C171.66826462 78.03779596 162.54364704 74.69678329 154.52217913 70.94287777 C153.73021135 70.56695492 152.93824358 70.19103207 152.12227678 69.80371761 C130.03474387 59.3550716 108.36549537 51.19294324 83.52217913 54.94287777 C85.98434767 57.43587848 88.45625171 59.88335009 91.05733538 62.23194027 C98.33635049 68.9596853 102.42075725 75.45809463 103.02217913 85.50537777 C102.24478063 98.0325993 93.88363752 106.01197494 85.21358538 114.09522152 C57.61713436 137.48285505 24.30967604 147.43676251 -11.47782087 144.94287777 C-18.05863068 144.03741278 -24.23259758 142.15261108 -30.47782087 139.94287777 C-31.73078962 139.53166683 -32.98375837 139.12045589 -34.27469587 138.69678402 C-43.05639771 135.62683224 -51.50924761 131.78140638 -59.97782087 127.94287777 C-61.08842878 127.44457455 -62.19903669 126.94627132 -63.34329939 126.432868 C-73.27734502 121.84786608 -82.87575137 116.3107472 -87.85282087 106.13037777 C-89.3532224 98.47832999 -89.15111798 92.33240054 -85.17459822 85.4563055 C-79.12035076 76.48817923 -69.06665309 71.41016111 -59.91532087 66.13037777 C-58.50029787 65.30350121 -57.08592254 64.47551542 -55.67215681 63.64649105 C-52.73930012 61.92792476 -49.80374766 60.21411198 -46.86600447 58.50391293 C-40.63126169 54.8704649 -34.42553711 51.1882673 -28.22174788 47.50229549 C-26.22759201 46.31774182 -24.23250742 45.13476385 -22.23734236 43.95191097 C-12.68809641 38.28522629 -3.19572153 32.52861818 6.28218889 26.7436285 C15.25298074 21.27199735 24.29581976 15.97153016 33.52217913 10.94287777 C33.52217913 10.61287777 33.52217913 10.28287777 33.52217913 9.94287777 C25.21999637 9.84978102 16.91803541 9.7789135 8.61545801 9.73562908 C4.75930633 9.71484401 0.90351444 9.68669534 -2.95243025 9.64111996 C-6.68072828 9.59733416 -10.40868248 9.57367256 -14.137218 9.5633688 C-15.55246209 9.55603557 -16.96768952 9.54171698 -18.38278532 9.51995754 C-26.99166509 9.3929687 -33.77525143 9.97964981 -41.47782087 13.94287777 Z M23.58440447 24.77512264 C18.64712733 28.27023049 13.42906179 31.26867672 8.20967913 34.31787777 C6.16121697 35.54700732 4.11416655 36.77849523 2.06905413 38.01319027 C-4.61165939 42.02940094 -11.31148483 46.01297002 -18.01520491 49.99060726 C-20.03531639 51.18990671 -22.05439958 52.39092116 -24.07327986 53.59229183 C-30.3906564 57.34889052 -36.71592919 61.08986004 -43.07295942 64.77905941 C-45.97335817 66.46356968 -48.86869226 68.15668032 -51.76367903 69.85047054 C-53.13253965 70.64814774 -54.5038234 71.44168447 -55.87775373 72.2305975 C-70.31735691 80.17485715 -70.31735691 80.17485715 -80.66532087 92.50537777 C-81.64280802 96.64090032 -81.96124479 99.95665145 -80.47782087 103.94287777 C-68.6184668 122.39835673 -35.34828342 132.08085202 -15.10843611 136.91968441 C-5.40748935 138.87185166 4.68505536 138.28195402 14.52217913 137.94287777 C13.3322361 135.33146434 12.65364667 134.04429559 10.33467913 132.25537777 C2.80145924 126.06139697 -1.45499482 118.81489341 -2.43485212 109.07178402 C-2.63870376 98.97186187 2.72514152 90.63382229 9.45967913 83.50537777 C34.85827828 59.49906063 67.37415671 46.25745036 102.21749163 46.73975277 C123.0385305 47.34411567 142.40070555 56.68990265 160.89717913 65.50537777 C161.5668471 65.82035213 162.23651506 66.1353265 162.926476 66.45984554 C173.86895814 71.63318103 183.98038379 77.03284794 188.52217913 88.94287777 C190.23949467 95.71614094 189.82178024 101.74793131 186.52217913 107.94287777 C181.01952286 116.22567189 172.89410461 120.98683362 164.52217913 125.94287777 C163.74600237 126.40645687 162.96982561 126.87003597 162.17012835 127.34766293 C156.66723026 130.63260561 151.14384558 133.88190595 145.61592913 137.12451839 C140.17984015 140.31959342 134.75794009 143.53859362 129.33467913 146.75537777 C127.04826159 148.11091542 124.76180891 149.46639358 122.47530413 150.82178402 C121.61857103 151.32969227 121.61857103 151.32969227 120.7445302 151.84786129 C116.66625561 154.26542513 112.58665852 156.68074736 108.50655413 159.09522152 C102.89681178 162.41504491 97.28955067 165.73903029 91.6842885 169.06641293 C89.58984521 170.30930137 87.49480059 171.5511771 85.39913225 172.79199886 C82.54212596 174.4844746 79.68798793 176.18167812 76.83467913 177.88037777 C75.98462297 178.38278988 75.13456682 178.88520199 74.25875139 179.40283871 C73.49619036 179.85820004 72.73362932 180.31356136 71.94796038 180.78272152 C71.2819179 181.17838314 70.61587542 181.57404476 69.92964983 181.98169613 C69.4651845 182.29888607 69.00071917 182.61607601 68.52217913 182.94287777 C68.52217913 183.27287777 68.52217913 183.60287777 68.52217913 183.94287777 C77.08513125 184.03595448 85.64786859 184.10683211 94.2112031 184.15012646 C98.1884172 184.17091578 102.16528275 184.19907258 106.14229631 184.24463558 C109.98730266 184.28840571 113.83197579 184.31207981 117.67721224 184.32238674 C119.13711202 184.32972271 120.59699556 184.34404683 122.05675173 184.365798 C130.68920337 184.48919761 137.74729575 183.93979053 145.52217913 179.94287777 C146.35976763 179.54287563 147.19735613 179.1428735 148.0603261 178.73075008 C150.78829072 177.41706476 153.48992118 176.05870534 156.19014788 174.68897152 C157.18686007 174.18801464 158.18357225 173.68705776 159.21048784 173.17092037 C162.37883852 171.57791793 165.54445821 169.97958861 168.70967913 168.38037777 C180.69944939 162.33152694 192.68922984 156.29688767 204.81905413 150.53272152 C216.9444115 144.77032676 228.98338111 138.83963149 240.99898577 132.85205746 C243.41762451 131.64724507 245.83863255 130.44738987 248.26168108 129.25147152 C251.82312732 127.49366954 255.37795281 125.72273548 258.93233538 123.95069027 C260.01039949 123.42041225 261.08846361 122.89013424 262.19919634 122.34378719 C269.46163153 118.7020141 275.40450224 115.28873138 279.83467913 108.25537777 C280.32581194 107.48838558 280.81694475 106.72139339 281.32296038 105.93115902 C283.95441211 101.56826347 284.20991365 97.98356725 283.52217913 92.94287777 C276.83099554 75.48052061 253.35232382 68.32088958 237.89791155 61.21362972 C228.88420914 57.06701857 219.94174579 52.78790367 211.02217913 48.44287777 C200.11092838 43.1308661 189.14799511 37.95102694 178.12252092 32.87891293 C171.78116208 29.95157678 165.47447639 26.96728316 159.19796038 23.90381527 C158.4988756 23.56299923 157.79979082 23.22218319 157.07952166 22.87103939 C153.68587079 21.21500268 150.29590998 19.55195134 146.910851 17.87842464 C145.6732982 17.27214682 144.43567156 16.66601969 143.19796038 16.06006527 C142.12457415 15.53009945 141.05118792 15.00013363 139.94527483 14.45410824 C138.81565325 13.95540218 137.68603167 13.45669613 136.52217913 12.94287777 C135.92076097 12.66931454 135.31934282 12.3957513 134.69969988 12.11389828 C126.99886463 9.05123781 118.76829999 9.23457122 110.60030413 9.05225277 C109.78421427 9.03378544 108.96812441 9.01531811 108.12730455 8.99629116 C103.78868546 8.9046659 99.45028861 8.83638643 95.11104631 8.78272152 C91.5845123 8.7342695 88.06471269 8.63774002 84.54073381 8.49561214 C60.05303423 7.53136878 43.62582554 10.22989105 23.58440447 24.77512264 Z M59.83467913 60.81787777 C59.09572405 61.128139 58.35676897 61.43840023 57.59542131 61.75806332 C38.83344755 69.85731115 16.98882764 81.62624287 6.52217913 99.94287777 C4.77509775 105.18412189 4.49813078 110.2876378 6.51046038 115.50537777 C10.2465768 122.2409116 15.46927124 127.25211397 21.52217913 131.94287777 C22.28401506 132.54229183 23.045851 133.14170589 23.83077288 133.75928402 C28.8660558 135.97363921 33.34616135 134.36506938 38.27608538 132.59522152 C39.55134252 132.03649793 40.82078089 131.46434187 42.08467913 130.88037777 C42.76941301 130.5709222 43.4541469 130.26146664 44.1596303 129.94263363 C62.03940852 121.74012897 86.80483173 109.87795049 94.52217913 90.56787777 C96.15950643 84.79311261 95.2517073 80.10270779 92.39327288 74.88037777 C87.55471588 67.82242568 80.13480421 61.80263308 72.52217913 57.94287777 C67.90554532 57.2159706 64.01899592 59.04933355 59.83467913 60.81787777 Z " fill="#0C6D9D" transform="translate(187.4778208732605,59.057122230529785)"/>
<path d="M0 0 C1.90399551 -0.00391162 1.90399551 -0.00391162 3.84645557 -0.00790226 C5.27343573 -0.00573974 6.70041575 -0.00348306 8.12739563 -0.0011425 C9.62897371 -0.00229334 11.13055151 -0.0038806 12.63212872 -0.00586975 C16.77811919 -0.01006825 20.92408683 -0.00797004 25.07007742 -0.00488353 C29.53365329 -0.00263175 33.99722509 -0.00610792 38.46080017 -0.00886345 C47.21275102 -0.01332254 55.96469333 -0.01234406 64.71664453 -0.00945081 C71.82616766 -0.00719732 78.9356884 -0.00688402 86.04521179 -0.00797462 C87.05501907 -0.00812786 88.06482635 -0.00828109 89.10523385 -0.00843897 C91.15629458 -0.00875868 93.20735532 -0.00908289 95.25841606 -0.00941156 C114.51539212 -0.01226676 133.77236343 -0.0089787 153.02933872 -0.00361119 C169.57187374 0.00085688 186.11440175 0.00008096 202.65693665 -0.00452995 C221.84249519 -0.00987501 241.02804956 -0.01199206 260.21360874 -0.00891769 C262.25735029 -0.00859912 264.30109183 -0.00828475 266.34483337 -0.00797462 C267.35053381 -0.00782035 268.35623425 -0.00766607 269.39241046 -0.00750712 C276.49778861 -0.00664176 283.60316413 -0.00810525 290.70854187 -0.01045418 C299.36131076 -0.01325162 308.01407057 -0.0125151 316.66683841 -0.00717343 C321.08610582 -0.00453566 325.50535808 -0.00353263 329.9246254 -0.00682259 C333.96350486 -0.00978401 338.00235498 -0.00819534 342.04123175 -0.00284503 C343.50890817 -0.00172018 344.97658703 -0.00231352 346.44426191 -0.00472082 C348.42618801 -0.00772435 350.40812097 -0.00407172 352.39004517 0 C353.49486897 0.00016235 354.59969278 0.0003247 355.7379961 0.00049198 C358.19502258 0.12584114 358.19502258 0.12584114 359.19502258 1.12584114 C359.32002258 4.62584114 359.32002258 4.62584114 359.19502258 8.12584114 C357.41375101 9.90711271 354.79867656 9.25132834 352.39004517 9.25168228 C351.12071483 9.25429003 349.85138449 9.25689778 348.54358959 9.25958455 C347.11660943 9.25742202 345.68962941 9.25516534 344.26264954 9.25282478 C342.76107146 9.25397562 341.25949365 9.25556289 339.75791645 9.25755203 C335.61192598 9.26175053 331.46595833 9.25965233 327.31996775 9.25656581 C322.85639187 9.25431404 318.39282007 9.2577902 313.929245 9.26054573 C305.17729414 9.26500482 296.42535184 9.26402635 287.67340064 9.26113309 C280.5638775 9.2588796 273.45435677 9.2585663 266.34483337 9.25965691 C265.3350261 9.25981014 264.32521882 9.25996337 263.28481132 9.26012125 C261.23375058 9.26044096 259.18268984 9.26076517 257.13162911 9.26109384 C237.87465305 9.26394904 218.61768173 9.26066099 199.36070645 9.25529347 C182.81817143 9.2508254 166.27564342 9.25160132 149.73310852 9.25621223 C130.54754998 9.2615573 111.36199561 9.26367434 92.17643642 9.26059997 C90.13269488 9.2602814 88.08895334 9.25996703 86.04521179 9.25965691 C85.03951135 9.25950263 84.03381092 9.25934836 82.99763471 9.2591894 C75.89225656 9.25832404 68.78688104 9.25978753 61.6815033 9.26213646 C53.02873441 9.2649339 44.3759746 9.26419738 35.72320676 9.25885572 C31.30393934 9.25621794 26.88468709 9.25521491 22.46541977 9.25850487 C18.42654031 9.26146629 14.38769018 9.25987762 10.34881341 9.25452732 C8.88113699 9.25340246 7.41345814 9.2539958 5.94578326 9.2564031 C3.96385716 9.25940663 1.98192419 9.255754 0 9.25168228 C-1.10482381 9.25151993 -2.20964762 9.25135758 -3.34795094 9.2511903 C-5.80497742 9.12584114 -5.80497742 9.12584114 -6.80497742 8.12584114 C-6.92997742 4.62584114 -6.92997742 4.62584114 -6.80497742 1.12584114 C-5.02370584 -0.65543043 -2.40863139 0.00035395 0 0 Z " fill="#267DA8" transform="translate(66.80497741699219,275.87415885925293)"/>
<path d="M0 0 C1.10840364 0.00037972 2.21680729 0.00075944 3.35879892 0.00115067 C4.63222935 -0.00084038 5.90565979 -0.00283143 7.21767902 -0.00488281 C8.64927848 -0.00202922 10.08087776 0.00091639 11.51247686 0.00394398 C13.01889223 0.00350841 14.52530753 0.00263377 16.03172243 0.00135481 C20.1910471 -0.00089296 24.35034627 0.00313497 28.50966769 0.00813287 C32.9875379 0.01243317 37.46540656 0.01099125 41.94327825 0.0102306 C49.70807324 0.0097051 57.47285984 0.01285464 65.23765272 0.01846844 C76.464375 0.02657988 87.69109322 0.02919829 98.91781812 0.03045643 C117.13043921 0.03264751 135.34305583 0.03930912 153.55567449 0.04875904 C171.25228885 0.05793171 188.94890199 0.06501325 206.64551824 0.06926686 C207.73550891 0.06952958 208.82549957 0.0697923 209.94852025 0.07006299 C215.41643562 0.07136798 220.88435099 0.0726317 226.35226637 0.07387489 C271.74665095 0.08424925 317.14103066 0.10186909 362.53541082 0.1241985 C362.53541082 2.7641985 362.53541082 5.4041985 362.53541082 8.1241985 C316.05359102 8.14706281 269.57177181 8.16469567 223.0899475 8.17526383 C217.60847107 8.17651461 212.12699465 8.17780892 206.64551824 8.17913014 C205.00855012 8.1795236 205.00855012 8.1795236 203.33851194 8.17992502 C185.64353614 8.18428216 167.94856357 8.19216995 150.2535897 8.20135129 C132.11123598 8.2106866 113.96888397 8.21625384 95.82652795 8.21828699 C84.62217844 8.21966248 73.41783807 8.22401444 62.21349137 8.23211496 C54.54130602 8.2373809 46.86912543 8.23900314 39.1969384 8.23769987 C34.76349988 8.23705625 30.33007738 8.23807668 25.89664167 8.24340397 C21.84477145 8.24823751 17.79292815 8.24853745 13.74105673 8.24509739 C12.26863898 8.24467165 10.79621962 8.24596777 9.3238051 8.24908168 C7.33547356 8.25304501 5.34713198 8.25035515 3.35879892 8.24724633 C1.69619346 8.24781591 1.69619346 8.24781591 0 8.24839699 C-2.46458918 8.1241985 -2.46458918 8.1241985 -3.46458918 7.1241985 C-3.58958918 4.1241985 -3.58958918 4.1241985 -3.46458918 1.1241985 C-2.46458918 0.1241985 -2.46458918 0.1241985 0 0 Z " fill="#0B6C9D" transform="translate(63.464589178562164,29.875801503658295)"/>
<path d="M0 0 C1.01437637 -0.0030011 2.02875275 -0.0060022 3.0738678 -0.00909424 C4.16767258 0.00325256 5.26147736 0.01559937 6.38842773 0.02832031 C7.51143784 0.03019348 8.63444794 0.03206665 9.79148865 0.03399658 C12.1661984 0.04072179 14.54089699 0.05464547 16.91552734 0.07519531 C20.56089509 0.10635022 24.20583068 0.11616549 27.85131836 0.12207031 C30.15536012 0.13124007 32.45939746 0.14161575 34.76342773 0.15332031 C35.85925674 0.15757019 36.95508575 0.16182007 38.0841217 0.16619873 C39.60095802 0.18061005 39.60095802 0.18061005 41.1484375 0.1953125 C42.48721703 0.2055545 42.48721703 0.2055545 43.8530426 0.21600342 C46.00952148 0.35644531 46.00952148 0.35644531 48.00952148 1.35644531 C48.05206505 3.35599277 48.05032931 5.35686168 48.00952148 7.35644531 C47.00952148 8.35644531 47.00952148 8.35644531 45.14292908 8.47669983 C44.32796463 8.47447922 43.51300018 8.47225861 42.67333984 8.4699707 C41.29202126 8.46985741 41.29202126 8.46985741 39.88279724 8.46974182 C38.88176468 8.46458054 37.88073212 8.45941925 36.84936523 8.45410156 C35.82976212 8.45268661 34.810159 8.45127167 33.75965881 8.44981384 C30.48875041 8.44419628 27.21790935 8.43164081 23.94702148 8.41894531 C21.73543393 8.41393257 19.5238453 8.40936928 17.31225586 8.40527344 C11.87796397 8.39507011 6.4438185 8.37549817 1.00952148 8.35644531 C1.00952148 17.92644531 1.00952148 27.49644531 1.00952148 37.35644531 C5.59600586 37.28683594 5.59600586 37.28683594 10.27514648 37.21582031 C13.23720642 37.18462358 16.19924804 37.16033643 19.16137695 37.13671875 C21.21972854 37.11660562 23.278023 37.08931134 25.33618164 37.0546875 C28.29514662 37.00615648 31.2533561 36.98347365 34.21264648 36.96582031 C35.13257385 36.94517517 36.05250122 36.92453003 37.00030518 36.90325928 C43.421821 36.9010049 43.421821 36.9010049 46.62182617 39.38085938 C47.07976562 40.03280273 47.53770508 40.68474609 48.00952148 41.35644531 C46.25952148 45.23144531 46.25952148 45.23144531 44.00952148 46.35644531 C42.62042844 46.44563308 41.22715241 46.47404072 39.83520508 46.4699707 C38.54409317 46.46985741 38.54409317 46.46985741 37.22689819 46.46974182 C36.29664825 46.46458054 35.36639832 46.45941925 34.40795898 46.45410156 C33.45635895 46.45268661 32.50475891 46.45127167 31.52432251 46.44981384 C28.47769051 46.44420543 25.43113136 46.43165151 22.38452148 46.41894531 C20.32202254 46.4139314 18.25952245 46.4093683 16.19702148 46.40527344 C11.13449331 46.39423327 6.07201976 46.37696298 1.00952148 46.35644531 C1.00952148 48.99644531 1.00952148 51.63644531 1.00952148 54.35644531 C2.89441284 54.34073486 2.89441284 54.34073486 4.81738281 54.32470703 C9.47458045 54.28853714 14.13176565 54.26555578 18.7890625 54.24658203 C20.80568529 54.23651759 22.82229347 54.22286485 24.83886719 54.20556641 C27.73563237 54.18133762 30.6322048 54.16996673 33.52905273 54.16113281 C34.43226761 54.15081024 35.33548248 54.14048767 36.2660675 54.12985229 C37.10671249 54.12970123 37.94735748 54.12955017 38.81347656 54.12939453 C39.55294022 54.12495331 40.29240387 54.12051208 41.05427551 54.11593628 C43.00952148 54.35644531 43.00952148 54.35644531 46.00952148 56.35644531 C46.38452148 58.85644531 46.38452148 58.85644531 46.00952148 61.35644531 C42.865354 63.45255697 42.11288657 63.6103253 38.52563477 63.63110352 C37.62104523 63.64063553 36.71645569 63.65016754 35.78445435 63.6599884 C34.80942963 63.659077 33.83440491 63.65816559 32.82983398 63.65722656 C31.82491913 63.66151169 30.82000427 63.66579681 29.78463745 63.67021179 C27.6579463 63.67595682 25.5312355 63.67645409 23.40454102 63.67211914 C20.15403581 63.66896425 16.90444504 63.69239899 13.65405273 63.71777344 C11.58764763 63.72004694 9.52124008 63.72074969 7.45483398 63.71972656 C5.9983696 63.73354118 5.9983696 63.73354118 4.51248169 63.74763489 C-4.28294291 63.68749083 -4.28294291 63.68749083 -7.99047852 60.35644531 C-8.47875977 57.00097656 -8.47875977 57.00097656 -8.30297852 53.16894531 C-8.23530273 51.26048828 -8.23530273 51.26048828 -8.16625977 49.31347656 C-8.10825195 48.33765625 -8.05024414 47.36183594 -7.99047852 46.35644531 C-10.30047852 46.02644531 -12.61047852 45.69644531 -14.99047852 45.35644531 C-15.67797852 43.04394531 -15.67797852 43.04394531 -15.99047852 40.35644531 C-14.86547852 38.54394531 -14.86547852 38.54394531 -12.99047852 37.35644531 C-11.3244816 37.30920062 -9.6563373 37.30455791 -7.99047852 37.35644531 C-8.00618896 36.34219482 -8.02189941 35.32794434 -8.03808594 34.28295898 C-8.0923817 30.52034444 -8.12682702 26.75776453 -8.15527344 22.99487305 C-8.17036095 21.36623308 -8.19083358 19.73763375 -8.21679688 18.10913086 C-8.253183 15.76828996 -8.27020472 13.42798613 -8.28344727 11.08691406 C-8.29893112 10.35868942 -8.31441498 9.63046478 -8.33036804 8.88017273 C-8.33204807 3.83490902 -8.33204807 3.83490902 -6.78109741 1.66236877 C-4.40430751 -0.07105742 -2.92792983 -0.01194892 0 0 Z " fill="#1371A0" transform="translate(90.990478515625,302.6435546875)"/>
<path d="M0 0 C6.58870062 6.10334515 10.22515031 12.94398672 10.8359375 21.96484375 C10.72805479 30.84204975 7.20396741 37.58271694 1.140625 43.97265625 C-8.61491036 52.8575603 -19.88747141 54.81635916 -32.66796875 54.5234375 C-43.8567951 53.96096208 -52.34947303 49.3770584 -59.97265625 41.3359375 C-65.28207877 34.8943587 -67.59021558 27.92800989 -67.12890625 19.58984375 C-66.11186365 11.76303763 -62.5673688 4.65630916 -56.2890625 -0.28125 C-39.08977474 -12.40236492 -16.849523 -13.72590376 0 0 Z M-52.4921875 8.16796875 C-56.4824773 12.97466267 -58.5900439 18.50556885 -58.31640625 24.77734375 C-57.00293258 32.06583489 -52.70814739 37.45892948 -46.75390625 41.65234375 C-38.01871818 46.87320947 -28.57102766 47.43921533 -18.6015625 45.78515625 C-11.44812793 43.74850177 -4.70037719 39.10196577 -0.69140625 32.77734375 C2.10432851 26.1374737 2.49686627 21.13796496 -0.0546875 14.453125 C-3.96609948 6.75127255 -9.87146379 2.28879382 -17.953125 -0.36328125 C-30.64028201 -2.75457786 -42.92604166 -0.91307842 -52.4921875 8.16796875 Z " fill="#0D6E9E" transform="translate(329.19140625,311.78515625)"/>
<path d="M0 0 C2.38716725 2.00005905 3.67887613 3.89451523 5.0234375 6.6953125 C4.2109375 9.0078125 4.2109375 9.0078125 3.0234375 10.6953125 C-2.437449 10.26700768 -4.82809529 9.13550482 -8.9765625 5.6953125 C-14.99446854 2.97967473 -19.91493879 2.22552179 -26.4765625 2.3203125 C-27.68119141 2.30291016 -27.68119141 2.30291016 -28.91015625 2.28515625 C-35.19121597 2.31569625 -41.15370683 3.21462116 -46.0390625 7.5078125 C-47.39742494 10.67732486 -47.07902177 12.4568384 -45.9765625 15.6953125 C-40.54395874 20.30479448 -32.51645128 20.82976895 -25.66772461 21.68310547 C-7.01663828 24.04310402 -7.01663828 24.04310402 -0.9140625 31.0703125 C0.8266648 35.94434893 1.45658454 39.29961647 -0.1015625 44.3203125 C-3.44752971 50.34305348 -7.35961231 53.61246774 -13.7734375 55.96484375 C-24.3218075 58.37038666 -36.38953463 57.98762242 -45.9765625 52.6953125 C-48.21122549 51.15160206 -50.02120327 49.59782418 -51.9765625 47.6953125 C-51.6465625 46.0453125 -51.3165625 44.3953125 -50.9765625 42.6953125 C-48.05899199 41.84113842 -46.51388424 41.47241006 -43.66015625 42.65625 C-42.91894531 43.12289062 -42.17773438 43.58953125 -41.4140625 44.0703125 C-34.29139709 48.48957457 -27.24858805 48.36002884 -18.9765625 47.6953125 C-14.74281506 46.53607213 -11.80761626 44.97385675 -9.3515625 41.1953125 C-8.8986916 38.17617316 -9.32808326 37.22025853 -10.9765625 34.6953125 C-17.54616757 31.0486098 -25.83724657 30.76091153 -33.16015625 29.96679688 C-41.79964562 28.89478975 -49.26830978 26.6144067 -54.9765625 19.6953125 C-57.45590289 16.15339766 -57.34226306 12.93743901 -56.9765625 8.6953125 C-54.87452509 2.63649879 -50.64214726 -1.47897154 -44.953125 -4.3125 C-30.22404015 -10.12512735 -13.40059091 -8.14720311 0 0 Z " fill="#0E6E9E" transform="translate(196.9765625,309.3046875)"/>
<path d="M0 0 C6.04324026 3.43365924 10.41210175 9.22056112 14.90625 14.4296875 C16.97850464 16.82682953 19.08051222 19.19584823 21.1875 21.5625 C21.86683594 22.325625 22.54617188 23.08875 23.24609375 23.875 C23.74238281 24.431875 24.23867188 24.98875 24.75 25.5625 C28.87961808 22.33938345 32.28027743 18.93096022 35.6875 14.9609375 C38.24269603 11.98955424 40.82480165 9.04589171 43.4375 6.125 C43.90115967 5.59253662 44.36481934 5.06007324 44.8425293 4.51147461 C46.71948021 2.42578595 48.31887882 0.75803584 50.89453125 -0.41015625 C52.75 -0.4375 52.75 -0.4375 55.75 1.5625 C56.11076355 4.08084106 56.11076355 4.08084106 56.09057617 7.29736328 C56.09023628 9.09900436 56.09023628 9.09900436 56.08988953 10.93704224 C56.07440567 12.23914642 56.05892181 13.54125061 56.04296875 14.8828125 C56.03737416 16.22516405 56.03310341 17.56752173 56.03010559 18.90988159 C56.01864585 22.44460941 55.98916959 25.97896798 55.95599365 29.5135498 C55.92531671 33.11965947 55.91160538 36.72582874 55.89648438 40.33203125 C55.86430052 47.40900532 55.81309094 54.48572857 55.75 61.5625 C53.4375 62.6875 53.4375 62.6875 50.75 63.5625 C47.75 61.5625 47.75 61.5625 47.35127258 59.61361694 C47.34016953 58.818638 47.32906647 58.02365906 47.31762695 57.20458984 C47.29783279 56.30380707 47.27803864 55.40302429 47.25764465 54.47494507 C47.25125473 53.50094757 47.24486481 52.52695007 47.23828125 51.5234375 C47.22033005 50.52744537 47.20237885 49.53145325 47.18388367 48.50527954 C47.12959002 45.31606311 47.09582383 42.12699791 47.0625 38.9375 C47.02934376 36.77862469 46.99485571 34.6197694 46.95898438 32.4609375 C46.873853 27.16159397 46.80558425 21.86223131 46.75 16.5625 C45.62513058 17.68144249 44.5011066 18.80123494 43.37744141 19.92138672 C42.43839462 20.85662674 42.43839462 20.85662674 41.4803772 21.8107605 C39.61034015 23.70388401 37.84751417 25.65951533 36.125 27.6875 C35.25875 28.68136719 35.25875 28.68136719 34.375 29.6953125 C33.83875 30.31148438 33.3025 30.92765625 32.75 31.5625 C28.61363636 36.28977273 28.61363636 36.28977273 25.375 37.3125 C19.06997552 35.51106444 14.63751839 28.39124113 10.5234375 23.5546875 C8.36580847 21.13091921 6.0445605 18.8570605 3.75 16.5625 C3.42 31.4125 3.09 46.2625 2.75 61.5625 C1.1 62.2225 -0.55 62.8825 -2.25 63.5625 C-3.24 62.9025 -4.23 62.2425 -5.25 61.5625 C-5.63095093 59.05761719 -5.63095093 59.05761719 -5.63818359 55.859375 C-5.64764008 54.66473633 -5.65709656 53.47009766 -5.6668396 52.23925781 C-5.66076691 50.94342773 -5.65469421 49.64759766 -5.6484375 48.3125 C-5.65045768 46.97493328 -5.65336864 45.63736763 -5.65713501 44.29980469 C-5.6615611 41.49533613 -5.65511861 38.69115404 -5.64111328 35.88671875 C-5.62402069 32.28832193 -5.63386043 28.6905963 -5.65183067 25.09222412 C-5.66266115 22.32986373 -5.65922568 19.567663 -5.6514473 16.80529785 C-5.64846712 14.83210821 -5.65759266 12.85891241 -5.6668396 10.88574219 C-5.65738312 9.69110352 -5.64792664 8.49646484 -5.63818359 7.265625 C-5.63579681 6.21020508 -5.63341003 5.15478516 -5.63095093 4.06738281 C-5.50523712 3.24077148 -5.37952332 2.41416016 -5.25 1.5625 C-2.25 -0.4375 -2.25 -0.4375 0 0 Z " fill="#076A9C" transform="translate(349.25,302.4375)"/>
<path d="M0 0 C1.73828125 1.45703125 1.73828125 1.45703125 3 3 C2.6875 5.6875 2.6875 5.6875 2 8 C-1.02080334 8.89866192 -2.57639537 9.1583689 -5.5703125 8.0390625 C-6.83488281 7.33910156 -6.83488281 7.33910156 -8.125 6.625 C-16.41405854 2.11514748 -25.8600132 1.56081838 -35.06640625 3.71875 C-41.5931267 6.18993576 -46.77308117 9.49673532 -50.375 15.625 C-52.92494856 21.30345688 -53.01859527 27.30122591 -51.375 33.26953125 C-48.67377318 39.57641352 -43.84274784 43.2856428 -37.6796875 46.03515625 C-27.05030203 49.70930074 -17.09454553 48.74426325 -7 44 C-6.01 43.34 -5.02 42.68 -4 42 C-0.875 41.8125 -0.875 41.8125 2 42 C3 43 3 43 3.375 45.3125 C3 48 3 48 1.0625 50.0625 C-10.51775552 57.38878411 -23.1437378 58.80788898 -36.53515625 56.3515625 C-46.53150314 53.33331067 -54.79013208 47.13862077 -60 38 C-62.90396885 30.76010524 -63.37424161 22.66602965 -61.16015625 15.1484375 C-56.86636399 5.80907791 -50.16327456 -0.17468313 -40.7265625 -4.03515625 C-26.95934063 -8.9069382 -12.52651956 -8.03588047 0 0 Z " fill="#0D6E9E" transform="translate(264,309)"/>
<path d="M0 0 C4.30714891 1.07678723 5.28991322 1.95440888 8.25 5.0625 C8.95640625 5.79597656 9.6628125 6.52945312 10.390625 7.28515625 C10.92171875 7.85105469 11.4528125 8.41695312 12 9 C12.66 6.03 13.32 3.06 14 0 C14.99 0 15.98 0 17 0 C17 3.3 17 6.6 17 10 C17.99 10 18.98 10 20 10 C20.2475 9.278125 20.495 8.55625 20.75 7.8125 C22.10983674 4.75286734 23.82917754 2.5326262 26 0 C30.39158329 1.4638611 30.87947433 3.97831338 33 8 C33.5775 7.05125 34.155 6.1025 34.75 5.125 C36.93792566 2.08621436 37.64201827 1.22718969 41 0 C43.2890625 -0.01171875 43.2890625 -0.01171875 45.625 0.3125 C46.40101563 0.41175781 47.17703125 0.51101562 47.9765625 0.61328125 C50 1 50 1 52 2 C52 1.34 52 0.68 52 0 C52.99 0 53.98 0 55 0 C55.495 1.98 55.495 1.98 56 4 C56.845625 3.34 57.69125 2.68 58.5625 2 C62.5265716 -0.30636893 64.4897723 -0.57402898 69 0 C71.9375 1.5 71.9375 1.5 74 3 C74.66 2.01 75.32 1.02 76 0 C79.45201639 1.47721422 81.64961936 3.43794001 84.25 6.125 C84.95640625 6.84945313 85.6628125 7.57390625 86.390625 8.3203125 C87.18726563 9.15175781 87.18726563 9.15175781 88 10 C88.33 6.7 88.66 3.4 89 0 C89.99 0 90.98 0 92 0 C93.60725635 3.21451269 93.05748185 6.43612536 93 10 C96.25524265 6.97727468 98.61820737 3.74281699 101 0 C106.55238197 2.10024883 108.20610717 7.04718999 111 12 C111.33 8.04 111.66 4.08 112 0 C112.99 0 113.98 0 115 0 C115 4.62 115 9.24 115 14 C118.63 14 122.26 14 126 14 C126 14.99 126 15.98 126 17 C123.20775927 17.08071788 120.41783434 17.14035408 117.625 17.1875 C116.8309375 17.21263672 116.036875 17.23777344 115.21875 17.26367188 C113.14413852 17.29004405 111.06899135 17.15486462 109 17 C108.01 15.515 108.01 15.515 107 14 C104.63715136 13.52209482 104.63715136 13.52209482 102 13.625 C101.113125 13.61726562 100.22625 13.60953125 99.3125 13.6015625 C98.549375 13.73304687 97.78625 13.86453125 97 14 C96.34 14.99 95.68 15.98 95 17 C92.70703125 17.99609375 92.70703125 17.99609375 90 18 C87.32421875 15.91015625 87.32421875 15.91015625 84.6875 13.0625 C83.36298828 11.65677734 83.36298828 11.65677734 82.01171875 10.22265625 C81.34785156 9.48917969 80.68398438 8.75570313 80 8 C79.67 10.97 79.34 13.94 79 17 C77.68 16.67 76.36 16.34 75 16 C74.505 15.01 74.505 15.01 74 14 C73.443125 14.474375 72.88625 14.94875 72.3125 15.4375 C69.65606416 17.23238908 68.20600594 17.85088344 65 18 C61.39537285 16.71699712 58.71705736 15.71705736 56 13 C55.67 14.32 55.34 15.64 55 17 C54.2265625 16.690625 54.2265625 16.690625 53.4375 16.375 C50.80920182 15.7869031 50.80920182 15.7869031 47.625 17.0625 C43.46474543 18.13842791 41.91840844 17.48028763 38 16 C35.7124024 16.27640014 35.7124024 16.27640014 34 17 C33.34 15.68 32.68 14.36 32 13 C30.37399059 13.0870005 28.74910322 13.1951781 27.125 13.3125 C25.76761719 13.39951172 25.76761719 13.39951172 24.3828125 13.48828125 C21.63778399 13.7882039 21.63778399 13.7882039 20 17 C17.63671875 17.890625 17.63671875 17.890625 15 18 C12.83203125 16.671875 12.83203125 16.671875 10.8125 14.75 C10.13832031 14.12609375 9.46414063 13.5021875 8.76953125 12.859375 C7 11 7 11 5 8 C4.67 10.64 4.34 13.28 4 16 C2.68 16.33 1.36 16.66 0 17 C0 11.39 0 5.78 0 0 Z M39 5.1875 C37.77663061 7.02978871 37.77663061 7.02978871 38.125 9.5625 C38.84389168 12.3261611 38.84389168 12.3261611 42 14 C44.5254223 14.0255089 44.5254223 14.0255089 47.1875 13.625 C48.08855469 13.51414062 48.98960937 13.40328125 49.91796875 13.2890625 C50.60503906 13.19367187 51.29210937 13.09828125 52 13 C52 10.36 52 7.72 52 5 C47.75966683 3.64309338 42.95031331 2.84200147 39 5.1875 Z M60 5.1875 C58.77663061 7.02978871 58.77663061 7.02978871 59.125 9.5625 C59.84389168 12.3261611 59.84389168 12.3261611 63 14 C68.04001408 13.76787034 68.04001408 13.76787034 72 11 C71.83557723 7.93008319 71.83557723 7.93008319 71 5 C67.45726657 3.22863328 63.42473388 3.15406426 60 5.1875 Z M26 6 C25.34 7.32 24.68 8.64 24 10 C25.65 10 27.3 10 29 10 C28.34 8.68 27.68 7.36 27 6 C26.67 6 26.34 6 26 6 Z M101 6 C100.34 7.32 99.68 8.64 99 10 C100.98 10 102.96 10 105 10 C104.34 8.68 103.68 7.36 103 6 C102.34 6 101.68 6 101 6 Z M75 11 C76 13 76 13 76 13 Z " fill="#0F6F9F" transform="translate(325,2)"/>
<path d="M0 0 C0 0.66 0 1.32 0 2 C1.32 2.33 2.64 2.66 4 3 C3.67 3.99 3.34 4.98 3 6 C-0.3 6.33 -3.6 6.66 -7 7 C-7 8.32 -7 9.64 -7 11 C-2.05 11.495 -2.05 11.495 3 12 C3 10.35 3 8.7 3 7 C4.4375 4.75 4.4375 4.75 7 3 C12.32646457 1.82720046 18.84176669 1.0213647 24 3 C26.359375 5.06640625 26.359375 5.06640625 28.75 7.5625 C29.54921875 8.38878906 30.3484375 9.21507812 31.171875 10.06640625 C31.77515625 10.70449219 32.3784375 11.34257812 33 12 C33.33 8.7 33.66 5.4 34 2 C34.99 2 35.98 2 37 2 C37 7.94 37 13.88 37 20 C33.33228155 18.16614077 31.53165004 16.74937171 28.75 13.875 C28.04359375 13.15054687 27.3371875 12.42609375 26.609375 11.6796875 C25.81273437 10.84824219 25.81273437 10.84824219 25 10 C24.67 12.97 24.34 15.94 24 19 C21.39555652 19.05394705 18.79223002 19.09364469 16.1875 19.125 C15.08051758 19.15013672 15.08051758 19.15013672 13.95117188 19.17578125 C10.08753574 19.21074628 8.29096332 19.19397555 5 17 C4.67 17.66 4.34 18.32 4 19 C-0.95 19 -5.9 19 -11 19 C-11 17.68 -11 16.36 -11 15 C-11.99 14.67 -12.98 14.34 -14 14 C-13.67 13.34 -13.34 12.68 -13 12 C-12.34 12 -11.68 12 -11 12 C-11 10.02 -11 8.04 -11 6 C-12.65 6 -14.3 6 -16 6 C-16 10.29 -16 14.58 -16 19 C-17.32 19 -18.64 19 -20 19 C-20 14.71 -20 10.42 -20 6 C-21.65 6 -23.3 6 -25 6 C-25 10.29 -25 14.58 -25 19 C-27.95887459 19.08069658 -30.9155659 19.14034665 -33.875 19.1875 C-34.71675781 19.21263672 -35.55851562 19.23777344 -36.42578125 19.26367188 C-37.23144531 19.27333984 -38.03710938 19.28300781 -38.8671875 19.29296875 C-39.61081543 19.3086792 -40.35444336 19.32438965 -41.12060547 19.34057617 C-41.74080566 19.22818604 -42.36100586 19.1157959 -43 19 C-43.66 18.01 -44.32 17.02 -45 16 C-45.8353125 16.7115625 -45.8353125 16.7115625 -46.6875 17.4375 C-49.37033079 19.25022351 -50.75843336 19.85265606 -54 20 C-58.55135588 18.85996866 -61.34208794 17.98686809 -64 14 C-67.3 14.66 -70.6 15.32 -74 16 C-74 16.99 -74 17.98 -74 19 C-75.32 19 -76.64 19 -78 19 C-78.02684679 16.35409986 -78.04676357 13.70846904 -78.0625 11.0625 C-78.07087891 10.30775391 -78.07925781 9.55300781 -78.08789062 8.77539062 C-78.09652441 6.85005687 -78.05224333 4.92464419 -78 3 C-76.44909185 1.44909185 -74.96303767 1.79322689 -72.8125 1.75 C-69.30452657 1.75555939 -67.97647408 2.01221538 -64.75 3.6875 C-63.38875 4.3371875 -63.38875 4.3371875 -62 5 C-60.32936253 4.00664799 -58.66324401 3.00568242 -57 2 C-52.34602238 1.87644307 -48.89186585 2.40542277 -45 5 C-44.34 4.01 -43.68 3.02 -43 2 C-42.01 2.33 -41.02 2.66 -40 3 C-40 7.29 -40 11.58 -40 16 C-36.37 16 -32.74 16 -29 16 C-29 11.71 -29 7.42 -29 3 C-23.83135293 1.70783823 -19.02983958 2.02730863 -13.7265625 2.16015625 C-8.84291997 1.95027224 -4.88527707 0 0 0 Z M-74 6 C-74 7.98 -74 9.96 -74 12 C-69.85906302 12.20970559 -69.85906302 12.20970559 -66 11 C-66 9.68 -66 8.36 -66 7 C-68.70879335 5.64560332 -71.00933268 5.93498549 -74 6 Z M-60 8 C-60.58350505 10.45709375 -60.58350505 10.45709375 -60 13 C-58.52040427 15.04826062 -58.52040427 15.04826062 -56 16 C-50.94892809 15.81541642 -50.94892809 15.81541642 -47 13 C-47.32971479 9.70285207 -47.6226839 8.3773161 -50 6 C-54.33643601 5.68462284 -56.32653229 5.55102153 -60 8 Z M7 8 C6.41649495 10.45709375 6.41649495 10.45709375 7 13 C8.47959573 15.04826062 8.47959573 15.04826062 11 16 C14.32044817 15.77100357 17.010197 15.4949015 20 14 C20 11.69 20 9.38 20 7 C18.39773045 6.77754607 16.79303233 6.57253331 15.1875 6.375 C14.29417969 6.25898437 13.40085937 6.14296875 12.48046875 6.0234375 C9.74309609 5.76499257 9.74309609 5.76499257 7 8 Z M-8 15 C-8 15.33 -8 15.66 -8 16 C-4.04 16 -0.08 16 4 16 C4 15.67 4 15.34 4 15 C0.04 15 -3.92 15 -8 15 Z " fill="#0B6D9D" transform="translate(242,0)"/>
<path d="M0 0 C4.18730802 1.046827 5.29986005 1.8176922 8 5 C8 5.66 8 6.32 8 7 C8.99 7.33 9.98 7.66 11 8 C11.33 8.66 11.66 9.32 12 10 C12.33 7.03 12.66 4.06 13 1 C15 1 17 1 19 1 C21.23934978 0.75790813 23.47470166 0.48799579 25.7109375 0.21875 C28 0 28 0 32 0 C33.92128078 -0.0083506 35.84256138 -0.01675541 37.76383972 -0.02565002 C40.90936493 -0.03895237 44.05489636 -0.04711546 47.20043945 -0.05493164 C48.86385726 -0.05999358 50.52727055 -0.06684096 52.19067383 -0.07543945 C54.58936653 -0.08750507 56.98800136 -0.09322513 59.38671875 -0.09765625 C60.13459152 -0.10281754 60.88246429 -0.10797882 61.65299988 -0.11329651 C63.4357333 -0.1134923 65.2183446 -0.06198801 67 0 C69.13735265 2.13735265 68.50995949 6.63801008 68.71875 9.53125 C68.73385265 11.9413605 68.73385265 11.9413605 70 13 C72.33944736 12.71269945 74.6739143 12.38063221 77 12 C77.06058594 11.21753906 77.12117188 10.43507813 77.18359375 9.62890625 C77.30927734 8.11103516 77.30927734 8.11103516 77.4375 6.5625 C77.55931641 5.04849609 77.55931641 5.04849609 77.68359375 3.50390625 C78 1 78 1 79 0 C81.69654854 -0.07319621 84.36691458 -0.09242537 87.0625 -0.0625 C87.82111328 -0.05798828 88.57972656 -0.05347656 89.36132812 -0.04882812 C91.24091871 -0.0370068 93.12046899 -0.01907078 95 0 C95 1.32 95 2.64 95 4 C93.35 4 91.7 4 90 4 C90 8.29 90 12.58 90 17 C88.68 17 87.36 17 86 17 C86 12.71 86 8.42 86 4 C84.68 4.33 83.36 4.66 82 5 C81.97421875 5.61488281 81.9484375 6.22976562 81.921875 6.86328125 C81.45776567 13.47683924 81.45776567 13.47683924 79.25 16 C74.84347822 17.95845413 72.95969966 18.33589488 68.25 16.6875 C65 15 65 15 64 13 C63.93049459 11.45976004 63.91547643 9.91665012 63.9375 8.375 C63.94652344 7.55773437 63.95554688 6.74046875 63.96484375 5.8984375 C63.97644531 5.27195312 63.98804688 4.64546875 64 4 C62.35 4 60.7 4 59 4 C59 8.29 59 12.58 59 17 C58.01 17 57.02 17 56 17 C56 12.71 56 8.42 56 4 C54.02 4 52.04 4 50 4 C50 8.29 50 12.58 50 17 C49.01 17 48.02 17 47 17 C47 12.71 47 8.42 47 4 C45.02 4 43.04 4 41 4 C41 8.29 41 12.58 41 17 C40.01 17 39.02 17 38 17 C38 12.71 38 8.42 38 4 C36.35 4 34.7 4 33 4 C33 4.66 33 5.32 33 6 C32.505 5.835 32.01 5.67 31.5 5.5 C27.96555911 4.79311182 24.60309299 4.93994845 21 5 C21 5.33 21 5.66 21 6 C24.63 6.99 28.26 7.98 32 9 C33 13 33 13 31.9375 15.1875 C29.30114438 17.65376816 27.58388485 17.8594555 24 18 C20.625 17.0625 20.625 17.0625 18 16 C18 14.68 18 13.36 18 12 C21.3 12.33 24.6 12.66 28 13 C28 12.67 28 12.34 28 12 C27.36191406 11.86722656 26.72382812 11.73445312 26.06640625 11.59765625 C24.82697266 11.33275391 24.82697266 11.33275391 23.5625 11.0625 C22.73878906 10.88847656 21.91507813 10.71445313 21.06640625 10.53515625 C19 10 19 10 18 9 C17.67 11.64 17.34 14.28 17 17 C13 17 13 17 10.640625 15.03125 C9.45726562 13.77828125 9.45726562 13.77828125 8.25 12.5 C7.45078125 11.6646875 6.6515625 10.829375 5.828125 9.96875 C5.22484375 9.3190625 4.6215625 8.669375 4 8 C3.67 10.97 3.34 13.94 3 17 C2.01 17 1.02 17 0 17 C0 11.39 0 5.78 0 0 Z " fill="#1975A3" transform="translate(45,2)"/>
<path d="M0 0 C0.99 0.33 1.98 0.66 3 1 C3.33 1.99 3.66 2.98 4 4 C4.40476562 3.52304688 4.80953125 3.04609375 5.2265625 2.5546875 C8.30180461 -0.1412296 12.02687692 -0.14612186 16 0 C19.0625 1.4375 19.0625 1.4375 21 3 C21.639375 2.484375 22.27875 1.96875 22.9375 1.4375 C27.19523223 -0.56102737 30.51271452 -0.20553938 35 1 C37.5625 2.5625 37.5625 2.5625 39 5 C39.59983148 7.80882624 39.66710362 10.19931498 39 13 C36.66218486 15.60499401 34.83277256 16.701056 31.5625 17.875 C28.33556742 18.03241135 26.01066773 17.11263807 23 16 C20.0745356 15.7763932 20.0745356 15.7763932 18 17 C15.7578125 17.203125 15.7578125 17.203125 13.125 17.25 C12.26132812 17.27578125 11.39765625 17.3015625 10.5078125 17.328125 C7.54975351 16.94108924 6.20798216 15.95124005 4 14 C3.67 14.99 3.34 15.98 3 17 C1.68 17 0.36 17 -1 17 C-1.02684679 14.35409986 -1.04676357 11.70846904 -1.0625 9.0625 C-1.07087891 8.30775391 -1.07925781 7.55300781 -1.08789062 6.77539062 C-1.09652441 4.85005687 -1.05224333 2.92464419 -1 1 C-0.67 0.67 -0.34 0.34 0 0 Z M6.9375 5.6875 C5.70260385 8.04406606 5.70260385 8.04406606 6.8125 10.75 C7.204375 11.4925 7.59625 12.235 8 13 C9.258125 13.20625 10.51625 13.4125 11.8125 13.625 C12.52019531 13.74101562 13.22789062 13.85703125 13.95703125 13.9765625 C16.31755824 14.19577848 16.31755824 14.19577848 19 12 C19.73606499 8.43230448 19.73606499 8.43230448 20 5 C15.57175185 3.58296059 10.71335898 2.59816083 6.9375 5.6875 Z M23 6 C22.41649495 8.45709375 22.41649495 8.45709375 23 11 C24.47959573 13.04826062 24.47959573 13.04826062 27 14 C30.62057268 14.00668717 30.62057268 14.00668717 34 13 C36.264384 10.30844799 36.264384 10.30844799 35.75 7.9375 C35.07467282 5.80523025 35.07467282 5.80523025 33 4 C28.66356399 3.68462284 26.67346771 3.55102153 23 6 Z " fill="#1673A2" transform="translate(281,2)"/>
<path d="M0 0 C4.18730802 1.046827 5.29986005 1.8176922 8 5 C8 5.66 8 6.32 8 7 C8.99 7.33 9.98 7.66 11 8 C11.33 8.66 11.66 9.32 12 10 C12.33 7.03 12.66 4.06 13 1 C17.48244396 1 21.558491 1.34199867 26 2 C25.360625 2.28875 24.72125 2.5775 24.0625 2.875 C21.84793921 3.82823451 21.84793921 3.82823451 21 6 C24.63 6.99 28.26 7.98 32 9 C33 13 33 13 31.9375 15.1875 C29.30114438 17.65376816 27.58388485 17.8594555 24 18 C20.625 17.0625 20.625 17.0625 18 16 C18 14.68 18 13.36 18 12 C21.3 12.33 24.6 12.66 28 13 C28 12.67 28 12.34 28 12 C27.36191406 11.86722656 26.72382812 11.73445312 26.06640625 11.59765625 C24.82697266 11.33275391 24.82697266 11.33275391 23.5625 11.0625 C22.73878906 10.88847656 21.91507813 10.71445313 21.06640625 10.53515625 C19 10 19 10 18 9 C17.67 11.64 17.34 14.28 17 17 C13 17 13 17 10.640625 15.03125 C9.45726562 13.77828125 9.45726562 13.77828125 8.25 12.5 C7.45078125 11.6646875 6.6515625 10.829375 5.828125 9.96875 C5.22484375 9.3190625 4.6215625 8.669375 4 8 C3.67 10.97 3.34 13.94 3 17 C2.01 17 1.02 17 0 17 C0 11.39 0 5.78 0 0 Z " fill="#1472A1" transform="translate(45,2)"/>
<path d="M0 0 C4.30714891 1.07678723 5.28991322 1.95440888 8.25 5.0625 C8.95640625 5.79597656 9.6628125 6.52945312 10.390625 7.28515625 C10.92171875 7.85105469 11.4528125 8.41695312 12 9 C12.66 6.03 13.32 3.06 14 0 C14.99 0 15.98 0 17 0 C17.19430855 2.6246601 17.38073238 5.24946765 17.5625 7.875 C17.61857422 8.62136719 17.67464844 9.36773437 17.73242188 10.13671875 C18.11328125 15.7734375 18.11328125 15.7734375 17 18 C11.34746692 16.62968895 8.4886459 12.32310587 5 8 C4.67 10.64 4.34 13.28 4 16 C2.68 16.33 1.36 16.66 0 17 C0 11.39 0 5.78 0 0 Z " fill="#1371A0" transform="translate(325,2)"/>
<path d="M0 0 C3.375 1.5625 3.375 1.5625 6 4 C7.125 7.4375 7.125 7.4375 7 11 C5.06443215 14.62918973 3.48068262 15.77814648 -0.25 17.5 C-4.81479239 18.10863898 -8.05107749 17.3693535 -12 15 C-14.34549674 11.48175489 -14.57991403 10.14224306 -14 6 C-9.55425886 0.73530654 -6.87305976 -0.57275498 0 0 Z M-9 5.1875 C-10.22336939 7.02978871 -10.22336939 7.02978871 -9.875 9.5625 C-9.15610832 12.3261611 -9.15610832 12.3261611 -6 14 C-0.95998592 13.76787034 -0.95998592 13.76787034 3 11 C2.67028521 7.70285207 2.3773161 6.3773161 0 4 C-4.70696153 3.53501702 -4.70696153 3.53501702 -9 5.1875 Z " fill="#1572A1" transform="translate(153,2)"/>
<path d="M0 0 C0.79792969 0.00386719 1.59585938 0.00773438 2.41796875 0.01171875 C3.21589844 0.00785156 4.01382813 0.00398437 4.8359375 0 C10.79136108 0.01011108 10.79136108 0.01011108 11.91796875 1.13671875 C11.98976839 2.65599913 12.00188882 4.17839357 11.98046875 5.69921875 C11.97144531 6.52550781 11.96242187 7.35179687 11.953125 8.203125 C11.94152344 8.84121094 11.92992187 9.47929687 11.91796875 10.13671875 C11.58796875 10.13671875 11.25796875 10.13671875 10.91796875 10.13671875 C10.91796875 8.15671875 10.91796875 6.17671875 10.91796875 4.13671875 C9.26796875 4.13671875 7.61796875 4.13671875 5.91796875 4.13671875 C5.91796875 8.42671875 5.91796875 12.71671875 5.91796875 17.13671875 C4.59796875 17.13671875 3.27796875 17.13671875 1.91796875 17.13671875 C1.91796875 12.84671875 1.91796875 8.55671875 1.91796875 4.13671875 C0.26796875 4.13671875 -1.38203125 4.13671875 -3.08203125 4.13671875 C-3.08203125 8.42671875 -3.08203125 12.71671875 -3.08203125 17.13671875 C-3.41203125 17.13671875 -3.74203125 17.13671875 -4.08203125 17.13671875 C-4.08203125 12.18671875 -4.08203125 7.23671875 -4.08203125 2.13671875 C-4.74203125 2.13671875 -5.40203125 2.13671875 -6.08203125 2.13671875 C-6.08203125 6.75671875 -6.08203125 11.37671875 -6.08203125 16.13671875 C-6.41203125 16.13671875 -6.74203125 16.13671875 -7.08203125 16.13671875 C-7.1088822 13.65748074 -7.12879672 11.17853035 -7.14453125 8.69921875 C-7.15709961 7.63864258 -7.15709961 7.63864258 -7.16992188 6.55664062 C-7.17856713 4.74978316 -7.13423136 2.94284272 -7.08203125 1.13671875 C-5.19650595 -0.74880655 -2.50434294 0.00425186 0 0 Z " fill="#297FA9" transform="translate(220.08203125,1.86328125)"/>
<path d="M0 0 C0.99 0 1.98 0 3 0 C3 5.94 3 11.88 3 18 C-0.66771845 16.16614077 -2.46834996 14.74937171 -5.25 11.875 C-5.95640625 11.15054687 -6.6628125 10.42609375 -7.390625 9.6796875 C-7.92171875 9.12539062 -8.4528125 8.57109375 -9 8 C-9.33 10.97 -9.66 13.94 -10 17 C-10.99 16.67 -11.98 16.34 -13 16 C-12.67 11.05 -12.34 6.1 -12 1 C-7.21152001 3.39423999 -4.69755556 6.16023077 -1 10 C-0.67 6.7 -0.34 3.4 0 0 Z " fill="#0D6E9E" transform="translate(276,2)"/>
<path d="M0 0 C3.91916105 1.03135817 5.38232377 1.53642508 7.5625 4.9375 C8.17315697 7.74306552 8.22910954 10.13888924 7.5625 12.9375 C5.22468486 15.54249401 3.39527256 16.638556 0.125 17.8125 C-3.17573967 17.97351169 -5.43959326 17.30018488 -8.4375 15.9375 C-8.7675 14.9475 -9.0975 13.9575 -9.4375 12.9375 C-10.0975 12.9375 -10.7575 12.9375 -11.4375 12.9375 C-11.4375 10.9575 -11.4375 8.9775 -11.4375 6.9375 C-10.7775 6.6075 -10.1175 6.2775 -9.4375 5.9375 C-9.4375 7.9175 -9.4375 9.8975 -9.4375 11.9375 C-7.83634424 12.1868357 -6.23129841 12.41128648 -4.625 12.625 C-3.28501953 12.81642578 -3.28501953 12.81642578 -1.91796875 13.01171875 C0.60921793 13.17133608 0.60921793 13.17133608 2.3984375 11.5859375 C3.7920552 9.99050096 3.7920552 9.99050096 3.375 7.875 C2.62779664 5.75037474 2.62779664 5.75037474 0.5625 3.9375 C-1.76025177 3.53702556 -4.09489357 3.1977896 -6.4375 2.9375 C-4.44557318 0.00819585 -3.63274501 -0.06604991 0 0 Z " fill="#1271A0" transform="translate(312.4375,2.0625)"/>
<path d="M0 0 C5.28 0 10.56 0 16 0 C16 1.32 16 2.64 16 4 C14.35 4 12.7 4 11 4 C11 8.29 11 12.58 11 17 C9.68 17 8.36 17 7 17 C7 12.71 7 8.42 7 4 C5.68 4.33 4.36 4.66 3 5 C2.67 7.97 2.34 10.94 2 14 C1.67 14 1.34 14 1 14 C1.01160156 13.15695312 1.02320312 12.31390625 1.03515625 11.4453125 C1.04417969 10.34960938 1.05320312 9.25390625 1.0625 8.125 C1.07410156 7.03445312 1.08570312 5.94390625 1.09765625 4.8203125 C1.19744303 2.04822454 1.19744303 2.04822454 0 0 Z " fill="#297EA9" transform="translate(124,2)"/>
<path d="M0 0 C1.32 0.66 2.64 1.32 4 2 C2.68 2.33 1.36 2.66 0 3 C-0.33 21.81 -0.66 40.62 -1 60 C-1.66 60 -2.32 60 -3 60 C-3.06943899 52.47235183 -3.12278005 44.94473676 -3.15543652 37.41684151 C-3.17110825 33.92149691 -3.19237331 30.42637104 -3.22631836 26.93115234 C-3.26507941 22.91501742 -3.27969664 18.89911309 -3.29296875 14.8828125 C-3.30845261 13.62445587 -3.32393646 12.36609924 -3.33988953 11.0696106 C-3.34011612 9.90855804 -3.34034271 8.74750549 -3.34057617 7.55126953 C-3.34723801 6.52534698 -3.35389984 5.49942444 -3.36076355 4.44241333 C-3.24171158 3.63641693 -3.12265961 2.83042053 -3 2 C-2.01 1.34 -1.02 0.68 0 0 Z " fill="#3384AD" transform="translate(347,302)"/>
<path d="M0 0 C2.33287367 0.16172434 4.03311585 -0.15576026 6.25390625 -0.84375 C6.14051421 1.80305904 6.01377752 4.44802518 5.87890625 7.09375 C5.8325 8.22586914 5.8325 8.22586914 5.78515625 9.38085938 C5.68127475 11.31132395 5.47495011 13.23567081 5.25390625 15.15625 C4.59390625 15.48625 3.93390625 15.81625 3.25390625 16.15625 C3.25390625 12.19625 3.25390625 8.23625 3.25390625 4.15625 C1.64515625 4.135625 0.03640625 4.115 -1.62109375 4.09375 C-2.52601563 4.08214844 -3.4309375 4.07054687 -4.36328125 4.05859375 C-6.76295225 3.99375743 -6.76295225 3.99375743 -8.74609375 5.15625 C-8.74609375 7.13625 -8.74609375 9.11625 -8.74609375 11.15625 C-9.40609375 11.15625 -10.06609375 11.15625 -10.74609375 11.15625 C-11.07609375 9.50625 -11.40609375 7.85625 -11.74609375 6.15625 C-12.40609375 7.14625 -13.06609375 8.13625 -13.74609375 9.15625 C-13.99609375 6.90625 -13.99609375 6.90625 -13.74609375 4.15625 C-9.54673881 -1.05674234 -6.14842202 -0.91550108 0 0 Z " fill="#3888AF" transform="translate(258.74609375,2.84375)"/>
<path d="M0 0 C0.66 0 1.32 0 2 0 C2.33 3.96 2.66 7.92 3 12 C6.63 12 10.26 12 14 12 C14.33 8.04 14.66 4.08 15 0 C15.66 0 16.32 0 17 0 C17 4.95 17 9.9 17 15 C11.39 15 5.78 15 0 15 C0 10.05 0 5.1 0 0 Z " fill="#076A9C" transform="translate(199,4)"/>
<path d="M0 0 C1.43836751 0.11458693 2.87570966 0.24209116 4.3125 0.375 C5.51326172 0.47941406 5.51326172 0.47941406 6.73828125 0.5859375 C9 1 9 1 12 3 C12.66 2.01 13.32 1.02 14 0 C14.99 0.33 15.98 0.66 17 1 C17 5.62 17 10.24 17 15 C16.67 15 16.34 15 16 15 C16 10.71 16 6.42 16 2 C15.34 2 14.68 2 14 2 C14 6.62 14 11.24 14 16 C13.34 15.01 12.68 14.02 12 13 C11.34 12.34 10.68 11.68 10 11 C9.6596875 9.7625 9.6596875 9.7625 9.3125 8.5 C8.14380897 5.59129963 8.14380897 5.59129963 4.375 4.6875 C3.26125 4.460625 2.1475 4.23375 1 4 C0.67 2.68 0.34 1.36 0 0 Z " fill="#267DA8" transform="translate(185,2)"/>
<path d="M0 0 C0.33 0 0.66 0 1 0 C1 1.65 1 3.3 1 5 C5.61434075 7.53044493 10.00934517 7.21579803 15 6 C15.66 5.34 16.32 4.68 17 4 C17 5.32 17 6.64 17 8 C14.29160473 10.70839527 11.81151516 11.82674931 8 12 C3.44864412 10.85996866 0.65791206 9.98686809 -2 6 C-1.45945946 1.45945946 -1.45945946 1.45945946 0 0 Z " fill="#0C6D9E" transform="translate(141,8)"/>
<path d="M0 0 C2.99324263 1.0975223 3.84610901 1.67682892 5.25 4.625 C5.4975 5.40875 5.745 6.1925 6 7 C5.34 7 4.68 7 4 7 C4.33 8.32 4.66 9.64 5 11 C0.66666667 11 -3.66666667 11 -8 11 C-8.33 11.66 -8.66 12.32 -9 13 C-9 9.37 -9 5.74 -9 2 C-8.67 2 -8.34 2 -8 2 C-8 4.64 -8 7.28 -8 10 C-4.74475735 6.97727468 -2.38179263 3.74281699 0 0 Z M0 6 C-0.66 7.32 -1.32 8.64 -2 10 C-0.02 10 1.96 10 4 10 C3.34 8.68 2.68 7.36 2 6 C1.34 6 0.68 6 0 6 Z " fill="#1773A2" transform="translate(426,2)"/>
<path d="M0 0 C1.8125 0.1875 1.8125 0.1875 4 1 C6.53370588 4.34811134 7 5.70124217 7 10 C6.01 10 5.02 10 4 10 C3.67 9.34 3.34 8.68 3 8 C1.37581255 7.91909029 -0.24951745 7.86085005 -1.875 7.8125 C-2.77992188 7.77769531 -3.68484375 7.74289063 -4.6171875 7.70703125 C-5.40351563 7.80371094 -6.18984375 7.90039062 -7 8 C-7.99 9.485 -7.99 9.485 -9 11 C-9.66 11 -10.32 11 -11 11 C-11 9.02 -11 7.04 -11 5 C-9.35 4.34 -7.7 3.68 -6 3 C-6 3.66 -6 4.32 -6 5 C-3.36 5 -0.72 5 2 5 C1.34 3.35 0.68 1.7 0 0 Z " fill="#076A9C" transform="translate(429,8)"/>
<path d="M0 0 C0 0.66 0 1.32 0 2 C1.32 2.33 2.64 2.66 4 3 C3.67 3.99 3.34 4.98 3 6 C-0.3 6.33 -3.6 6.66 -7 7 C-7.33 8.65 -7.66 10.3 -8 12 C-8.33 12 -8.66 12 -9 12 C-8.96744792 9.98177083 -8.93489583 7.96354167 -8.90234375 5.9453125 C-8.87350758 3.91814596 -8.87350758 3.91814596 -10 2 C-6.38026598 0.68373308 -3.90432869 0 0 0 Z " fill="#227BA6" transform="translate(242,0)"/>
<path d="M0 0 C0.99 0.33 1.98 0.66 3 1 C3.9360342 4.79267192 3.98276252 7.93674565 3.5625 11.8125 C3.46066406 12.78832031 3.35882813 13.76414062 3.25390625 14.76953125 C3.12822266 15.87361328 3.12822266 15.87361328 3 17 C1.68 17 0.36 17 -1 17 C-1.02684679 14.35409986 -1.04676357 11.70846904 -1.0625 9.0625 C-1.07087891 8.30775391 -1.07925781 7.55300781 -1.08789062 6.77539062 C-1.09652441 4.85005687 -1.05224333 2.92464419 -1 1 C-0.67 0.67 -0.34 0.34 0 0 Z " fill="#3D8AB1" transform="translate(281,2)"/>
<path d="M0 0 C0.99 0.33 1.98 0.66 3 1 C3 6.28 3 11.56 3 17 C1.68 17 0.36 17 -1 17 C-1.02684679 14.35409986 -1.04676357 11.70846904 -1.0625 9.0625 C-1.07087891 8.30775391 -1.07925781 7.55300781 -1.08789062 6.77539062 C-1.09652441 4.85005687 -1.05224333 2.92464419 -1 1 C-0.67 0.67 -0.34 0.34 0 0 Z " fill="#0C6D9E" transform="translate(41,2)"/>
<path d="M0 0 C0.66 0 1.32 0 2 0 C2.33 2.97 2.66 5.94 3 9 C3.66 9 4.32 9 5 9 C5.33 7.68 5.66 6.36 6 5 C6 6.98 6 8.96 6 11 C7.65 11.33 9.3 11.66 11 12 C11 12.66 11 13.32 11 14 C11.66 14.33 12.32 14.66 13 15 C7.46153846 15.36923077 7.46153846 15.36923077 5.125 13.5 C4.75375 13.005 4.3825 12.51 4 12 C3.67 13.32 3.34 14.64 3 16 C2.34 16 1.68 16 1 16 C0.67 10.72 0.34 5.44 0 0 Z " fill="#0B6C9D" transform="translate(377,3)"/>
<path d="M0 0 C0.99 0 1.98 0 3 0 C3.33 1.32 3.66 2.64 4 4 C4.94875 3.34 5.8975 2.68 6.875 2 C10 0 10 0 12 0 C12 0.66 12 1.32 12 2 C13.32 2.66 14.64 3.32 16 4 C13.36 4.33 10.72 4.66 8 5 C8 7.31 8 9.62 8 12 C7.34 12 6.68 12 6 12 C5.67 11.34 5.34 10.68 5 10 C4.34 10 3.68 10 3 10 C1.5216774 7.04335481 1.93967217 4.25770263 2 1 C1.34 0.67 0.68 0.34 0 0 Z " fill="#227AA6" transform="translate(377,2)"/>
<path d="M0 0 C2.31 0 4.62 0 7 0 C7 5.28 7 10.56 7 16 C6.01 16 5.02 16 4 16 C4 11.38 4 6.76 4 2 C2.35 2 0.7 2 -1 2 C-0.67 1.34 -0.34 0.68 0 0 Z " fill="#03689A" transform="translate(79,3)"/>
<path d="M0 0 C1.91750286 0.08743331 3.83406665 0.1956189 5.75 0.3125 C6.81734375 0.37050781 7.8846875 0.42851563 8.984375 0.48828125 C12.1821068 1.03090154 13.62598691 1.85071145 16 4 C14.35 4 12.7 4 11 4 C11 4.66 11 5.32 11 6 C7.37 5.34 3.74 4.68 0 4 C0 2.68 0 1.36 0 0 Z " fill="#1170A0" transform="translate(67,2)"/>
<path d="M0 0 C0.99 0 1.98 0 3 0 C3 4.95 3 9.9 3 15 C2.01 15 1.02 15 0 15 C0 10.05 0 5.1 0 0 Z " fill="#016699" transform="translate(92,4)"/>
<path d="M0 0 C-1.65863505 4.32504836 -4.871041 7.09418825 -8.125 10.25 C-8.68832031 10.80429688 -9.25164062 11.35859375 -9.83203125 11.9296875 C-11.21686028 13.29104485 -12.60783204 14.64614859 -14 16 C-14 11.92092669 -12.43302134 10.94256832 -9.6875 8 C-8.48673828 6.700625 -8.48673828 6.700625 -7.26171875 5.375 C-6.51535156 4.59125 -5.76898438 3.8075 -5 3 C-4.44957031 2.401875 -3.89914063 1.80375 -3.33203125 1.1875 C-2 0 -2 0 0 0 Z " fill="#237BA7" transform="translate(204,137)"/>
<path d="M0 0 C0.33 0 0.66 0 1 0 C1.33 3.3 1.66 6.6 2 10 C3.65 10.33 5.3 10.66 7 11 C7 11.66 7 12.32 7 13 C6.01 13 5.02 13 4 13 C4 13.99 4 14.98 4 16 C2.68 16 1.36 16 0 16 C0 10.72 0 5.44 0 0 Z " fill="#2D81AB" transform="translate(164,3)"/>
<path d="M0 0 C1.32 0.33 2.64 0.66 4 1 C3.01 1.495 3.01 1.495 2 2 C2.33 6.95 2.66 11.9 3 17 C2.01 17 1.02 17 0 17 C0 11.39 0 5.78 0 0 Z " fill="#4690B5" transform="translate(325,2)"/>
<path d="M0 0 C0.99 0.33 1.98 0.66 3 1 C2.67 1.66 2.34 2.32 2 3 C2 3.66 2 4.32 2 5 C0.768606 7.46278801 -0.78064923 8.42497687 -3 10 C-3.99 9.34 -4.98 8.68 -6 8 C-4.02 5.36 -2.04 2.72 0 0 Z " fill="#1673A2" transform="translate(351,2)"/>
<path d="M0 0 C1.32 0.66 2.64 1.32 4 2 C2.9790625 2.2784375 2.9790625 2.2784375 1.9375 2.5625 C-2.18689821 4.58082253 -4.90378945 7.66287393 -8 11 C-8.66 10.67 -9.32 10.34 -10 10 C-8.90033225 8.70450101 -7.79508199 7.41373929 -6.6875 6.125 C-6.07261719 5.40570313 -5.45773437 4.68640625 -4.82421875 3.9453125 C-3 2 -3 2 0 0 Z " fill="#3083AC" transform="translate(400,302)"/>
<path d="M0 0 C1.093125 0.226875 2.18625 0.45375 3.3125 0.6875 C3.6425 2.0075 3.9725 3.3275 4.3125 4.6875 C3.61125 4.543125 2.91 4.39875 2.1875 4.25 C-0.76306141 3.67271625 -3.72020151 3.17054859 -6.6875 2.6875 C-4.58035839 -0.41123767 -3.86755884 -0.32775922 0 0 Z " fill="#1170A0" transform="translate(257.6875,2.3125)"/>
<path d="M0 0 C4.29 0 8.58 0 13 0 C13 0.33 13 0.66 13 1 C10.36 1 7.72 1 5 1 C5 1.99 5 2.98 5 4 C3.02 4 1.04 4 -1 4 C-0.67 2.68 -0.34 1.36 0 0 Z " fill="#3C8AB0" transform="translate(96,2)"/>
<path d="M0 0 C2 2 2 2 2.1953125 5.0390625 C2.17210937 6.22242188 2.14890625 7.40578125 2.125 8.625 C2.10695313 9.81351563 2.08890625 11.00203125 2.0703125 12.2265625 C2.04710937 13.14179688 2.02390625 14.05703125 2 15 C-0.46800047 13.84826645 -2.04783565 12.95216435 -4 11 C-2.68 10.67 -1.36 10.34 0 10 C0 6.7 0 3.4 0 0 Z " fill="#1E78A5" transform="translate(376,4)"/>
<path d="M0 0 C1.4370809 -0.05422947 2.87475462 -0.09289723 4.3125 -0.125 C5.11300781 -0.14820312 5.91351563 -0.17140625 6.73828125 -0.1953125 C9 0 9 0 12 2 C11.01 2 10.02 2 9 2 C9 2.66 9 3.32 9 4 C5.625 3.6875 5.625 3.6875 2 3 C1.34 2.01 0.68 1.02 0 0 Z " fill="#2B7FAA" transform="translate(165,2)"/>
<path d="M0 0 C0.33 0 0.66 0 1 0 C1 1.98 1 3.96 1 6 C1.66 6 2.32 6 3 6 C3 6.66 3 7.32 3 8 C4.32 8.66 5.64 9.32 7 10 C5.35 10 3.7 10 2 10 C1.67 9.01 1.34 8.02 1 7 C0.34 7 -0.32 7 -1 7 C-1.04254356 5.00045254 -1.04080783 2.99958364 -1 1 C-0.67 0.67 -0.34 0.34 0 0 Z " fill="#06699B" transform="translate(302,8)"/>
<path d="M0 0 C2.31 0.33 4.62 0.66 7 1 C6.0409375 1.433125 6.0409375 1.433125 5.0625 1.875 C2.84793921 2.82823451 2.84793921 2.82823451 2 5 C2.33 5.99 2.66 6.98 3 8 C1.68 7.67 0.36 7.34 -1 7 C-0.67 4.69 -0.34 2.38 0 0 Z " fill="#086A9C" transform="translate(64,3)"/>
<path d="M0 0 C0.3403125 0.86625 0.3403125 0.86625 0.6875 1.75 C2.33038023 4.5663661 4.39533227 6.08077114 7 8 C1.25 9.125 1.25 9.125 -1 8 C-0.67 5.36 -0.34 2.72 0 0 Z " fill="#1372A1" transform="translate(181,9)"/>
<path d="M0 0 C0.66 0.33 1.32 0.66 2 1 C-1.3 4.3 -4.6 7.6 -8 11 C-8 8 -8 8 -5.6875 5.5 C-4.800625 4.675 -3.91375 3.85 -3 3 C-2.401875 2.401875 -1.80375 1.80375 -1.1875 1.1875 C-0.795625 0.795625 -0.40375 0.40375 0 0 Z " fill="#3585AE" transform="translate(276,309)"/>
<path d="M0 0 C2.97 0.33 5.94 0.66 9 1 C6 4 6 4 2.8125 4.1875 C1.4203125 4.0946875 1.4203125 4.0946875 0 4 C0 2.68 0 1.36 0 0 Z " fill="#3183AC" transform="translate(67,2)"/>
<path d="M0 0 C0.66 0.33 1.32 0.66 2 1 C0.71451591 2.33929505 -0.57858155 3.67128643 -1.875 5 C-2.59429688 5.7425 -3.31359375 6.485 -4.0546875 7.25 C-6 9 -6 9 -8 9 C-6.4169423 4.7257442 -3.49431596 2.73468206 0 0 Z " fill="#3988B0" transform="translate(15,131)"/>
<path d="M0 0 C1.3921875 0.3403125 1.3921875 0.3403125 2.8125 0.6875 C1.8225 2.1725 1.8225 2.1725 0.8125 3.6875 C-1.4975 3.3575 -3.8075 3.0275 -6.1875 2.6875 C-4.14987265 -0.14253799 -3.59070275 -0.35202968 0 0 Z " fill="#096B9C" transform="translate(312.1875,2.3125)"/>
<path d="M0 0 C2.64 0.33 5.28 0.66 8 1 C8 1.33 8 1.66 8 2 C4.7 2.33 1.4 2.66 -2 3 C-1.34 2.01 -0.68 1.02 0 0 Z " fill="#04699B" transform="translate(290,3)"/>
<path d="M0 0 C1.98 0.99 1.98 0.99 4 2 C4 3.98 4 5.96 4 8 C3.34 7.67 2.68 7.34 2 7 C2 5.68 2 4.36 2 3 C1.34 3 0.68 3 0 3 C0 2.01 0 1.02 0 0 Z " fill="#06699B" transform="translate(396,5)"/>
</svg>
