<?xml version="1.0" standalone="no"?>
<!DOCTYPE svg PUBLIC "-//W3C//DTD SVG 20010904//EN"
 "http://www.w3.org/TR/2001/REC-SVG-20010904/DTD/svg10.dtd">
<svg version="1.0" xmlns="http://www.w3.org/2000/svg"
 width="500.000000pt" height="499.000000pt" viewBox="0 0 500.000000 499.000000"
 preserveAspectRatio="xMidYMid meet">

<g transform="translate(0.000000,499.000000) scale(0.100000,-0.100000)"
fill="#000000" stroke="none">
<path d="M1740 4620 c-9 -5 -33 -7 -53 -6 -30 3 -42 -2 -57 -22 -11 -13 -20
-20 -20 -15 0 5 5 14 12 21 9 9 8 12 -5 12 -9 0 -17 -7 -17 -16 0 -8 -4 -12
-10 -9 -12 7 -153 -59 -170 -80 -7 -8 -16 -15 -21 -15 -9 0 -59 -44 -59 -52 0
-3 -16 -22 -35 -42 -47 -50 -118 -194 -138 -281 -26 -106 -29 -138 -30 -290
-1 -165 4 -235 15 -235 5 0 6 -10 3 -23 -4 -13 0 -52 8 -88 8 -35 18 -90 22
-122 3 -31 12 -63 19 -70 7 -7 12 -20 10 -30 -1 -10 3 -23 10 -29 7 -6 10 -24
8 -40 -3 -23 -10 -29 -41 -34 -20 -4 -42 -11 -49 -17 -8 -6 -21 -12 -30 -13
-10 -2 -26 -5 -37 -8 -11 -2 -28 -5 -38 -5 -11 -1 -15 -5 -11 -13 5 -8 2 -9
-9 -5 -10 4 -46 -8 -86 -28 -38 -19 -74 -35 -80 -35 -6 0 -11 -4 -11 -10 0 -5
-8 -10 -17 -10 -34 -1 -89 -66 -111 -129 -13 -38 -6 -101 11 -101 6 0 8 -3 5
-6 -19 -19 176 -164 221 -164 11 0 23 -5 26 -10 4 -6 24 -9 46 -7 21 2 39 0
39 -5 0 -4 12 -8 26 -8 17 0 23 -4 18 -12 -5 -8 -2 -9 9 -5 12 5 17 1 17 -13
0 -11 -4 -20 -9 -20 -15 0 -58 -122 -62 -175 -7 -105 0 -237 14 -254 8 -9 12
-22 10 -28 -7 -18 26 -125 44 -145 9 -10 12 -18 7 -18 -5 0 -4 -4 1 -8 6 -4
16 -18 23 -32 26 -51 42 -75 42 -62 0 6 8 12 18 12 13 0 14 -2 3 -9 -11 -7
-11 -9 0 -14 12 -4 12 -6 1 -6 -8 -1 2 -17 22 -37 20 -20 36 -42 36 -50 0 -8
5 -14 10 -14 6 0 16 -11 22 -25 6 -14 17 -25 25 -25 7 0 13 -5 13 -10 0 -6 11
-16 25 -22 14 -6 25 -18 25 -25 0 -8 4 -11 10 -8 5 3 29 -12 51 -34 23 -22 46
-38 51 -35 4 3 8 -3 8 -12 0 -10 3 -15 6 -11 4 3 21 -5 38 -18 17 -13 55 -35
83 -48 29 -13 59 -30 68 -37 8 -7 15 -9 15 -4 0 5 4 3 9 -5 7 -11 75 -40 119
-52 4 -1 17 -5 30 -10 13 -5 30 -9 38 -9 8 0 14 -4 14 -10 0 -5 8 -10 18 -10
10 0 22 -4 28 -9 5 -6 23 -12 41 -15 37 -7 83 -24 66 -25 -7 -1 -10 -8 -6 -18
4 -10 2 -14 -4 -10 -14 9 -66 -51 -57 -65 4 -7 3 -8 -5 -4 -7 5 -20 -3 -32
-18 -44 -56 -129 -77 -160 -40 -6 8 -16 14 -21 14 -5 0 -18 9 -30 20 -12 11
-28 20 -35 20 -7 0 -15 11 -19 25 -4 14 -9 24 -12 21 -2 -3 -17 3 -32 14 -20
14 -30 16 -38 8 -9 -9 -12 -9 -12 0 0 7 5 12 10 12 6 0 10 7 10 16 0 10 -5 14
-15 10 -10 -4 -20 3 -27 19 -6 14 -15 25 -20 25 -5 0 -6 4 -3 10 3 5 -12 17
-34 26 -23 9 -41 20 -41 25 0 5 -7 9 -16 9 -9 0 -13 -5 -9 -12 4 -7 -1 -4 -9
6 -9 11 -16 27 -16 35 0 13 -2 13 -9 3 -7 -11 -11 -10 -24 2 -14 15 -17 14
-33 -6 -11 -16 -15 -18 -10 -5 4 12 -1 20 -17 25 -19 7 -43 8 -144 3 -13 -1
-23 -7 -23 -16 0 -8 -5 -15 -11 -15 -5 0 -7 5 -3 11 4 7 1 10 -7 7 -24 -8 -40
-51 -34 -88 3 -19 7 -50 10 -69 2 -19 7 -37 12 -40 5 -3 16 -22 26 -41 9 -19
17 -30 17 -25 1 16 29 -38 30 -57 0 -10 5 -18 10 -18 6 0 10 -7 10 -15 0 -8 5
-15 10 -15 6 0 10 -7 10 -15 0 -8 4 -15 9 -15 5 0 21 -24 35 -52 15 -29 30
-60 35 -68 19 -33 50 -107 57 -135 4 -16 14 -35 23 -42 9 -7 12 -13 6 -13 -5
0 -11 -17 -12 -38 -1 -20 -11 -55 -22 -77 -28 -54 -26 -105 5 -105 7 0 17 -7
22 -16 5 -9 28 -20 51 -24 61 -11 179 -4 198 11 9 8 21 14 27 14 23 2 52 20
84 52 18 18 38 33 45 33 7 0 27 14 44 30 37 35 119 79 154 82 13 2 27 8 31 13
5 6 8 5 8 -3 0 -8 8 -10 23 -7 48 12 199 7 237 -9 19 -7 90 -3 90 5 0 4 25 6
56 5 30 -1 58 2 61 7 3 5 20 6 39 3 26 -5 35 -3 43 12 6 11 7 22 4 26 -3 3 -2
6 4 6 6 0 13 -9 16 -20 5 -18 9 -19 34 -10 15 6 34 19 42 28 12 15 12 15 6 -6
-6 -22 -5 -23 17 -16 20 6 40 10 72 13 4 1 6 8 2 16 -3 8 -1 15 5 15 5 0 12
-6 15 -14 5 -12 15 -11 69 4 36 10 69 21 75 25 5 3 10 2 10 -4 0 -10 131 37
141 51 3 4 18 9 33 10 16 2 31 8 33 15 3 7 11 13 18 13 8 0 26 5 42 12 15 6
31 11 35 10 3 -1 12 5 18 13 7 8 19 15 26 15 8 0 14 4 14 10 0 5 17 17 37 25
21 9 45 23 55 33 27 26 47 42 53 42 13 0 125 122 125 136 0 8 6 14 13 12 28
-6 188 184 221 262 32 79 39 89 49 83 6 -4 8 2 5 15 -4 12 -2 20 3 16 5 -3 9
0 9 5 0 6 8 19 18 29 33 35 112 134 112 143 0 4 13 28 30 52 17 25 30 52 30
61 0 9 4 16 9 16 5 0 15 16 21 35 12 36 24 39 74 19 11 -4 17 -4 14 2 -7 11
43 11 61 0 16 -10 119 2 126 15 4 5 15 9 25 9 10 0 27 11 37 23 10 13 27 29
38 34 35 19 56 97 62 231 4 79 2 122 -4 122 -6 0 -8 12 -5 27 3 16 -1 30 -9
37 -8 6 -15 31 -17 56 -2 25 -11 61 -21 80 -10 19 -16 40 -14 47 2 6 -1 14 -6
18 -6 3 -11 14 -11 24 0 10 -7 24 -15 31 -8 7 -15 21 -15 31 0 11 -4 19 -10
19 -5 0 -10 6 -10 14 0 8 -10 22 -21 30 -21 14 -21 54 0 42 26 -17 39 178 14
217 -8 12 -9 16 -12 70 0 17 -5 26 -11 22 -7 -4 -9 2 -5 18 4 16 1 30 -12 42
-10 10 -16 19 -14 19 8 2 -10 46 -19 46 -4 0 -7 12 -5 28 2 15 -5 41 -16 58
-21 34 -28 92 -8 64 8 -11 12 -12 16 -2 2 6 16 12 29 12 13 0 24 5 24 10 0 6
8 10 18 10 20 0 69 42 94 82 21 32 29 116 13 132 -6 6 -12 15 -13 19 -2 18
-27 67 -34 67 -5 0 -8 9 -8 20 0 14 -6 20 -17 18 -11 -2 -19 6 -23 22 -6 25
-6 25 -12 3 -3 -13 -11 -23 -17 -23 -7 0 -9 10 -5 25 5 19 2 25 -10 25 -9 0
-16 7 -16 16 0 8 -19 24 -43 34 -24 11 -52 28 -62 40 -10 11 -26 20 -36 20 -9
0 -19 6 -22 13 -3 9 -7 9 -20 -1 -13 -11 -16 -10 -22 7 -3 12 -15 21 -25 21
-10 0 -22 5 -25 10 -4 6 -12 7 -18 3 -20 -13 -37 -12 -37 2 0 7 -7 16 -16 19
-22 8 -22 8 -27 -11 -4 -15 -5 -15 -6 -2 -1 16 -75 52 -86 41 -13 -13 -36 -10
-31 4 3 9 0 14 -7 12 -6 -1 -23 4 -35 11 -13 7 -35 10 -49 6 -16 -4 -34 0 -50
10 -14 9 -34 15 -44 12 -10 -3 -21 -2 -24 3 -2 4 -26 7 -52 8 -27 0 -60 3 -74
7 -17 4 -30 2 -34 -5 -5 -7 -10 -8 -14 -3 -10 16 -91 25 -91 11 0 -9 -3 -9
-11 -1 -9 9 -15 8 -26 -3 -8 -8 -23 -14 -34 -14 -10 0 -19 -5 -19 -11 0 -6 -7
-4 -15 5 -8 8 -13 21 -10 28 3 9 -5 20 -20 28 -14 7 -25 17 -25 22 0 4 -9 8
-19 8 -11 0 -26 9 -34 21 -11 15 -16 17 -20 7 -4 -9 -6 -7 -6 5 -1 16 -5 19
-33 21 -7 1 -15 4 -18 7 -10 12 -157 79 -173 79 -9 0 -17 6 -17 13 0 6 -11 17
-25 24 -20 9 -25 8 -25 -3 0 -8 -5 -14 -11 -14 -6 0 -8 8 -4 20 5 15 0 21 -19
26 -14 3 -29 3 -35 0 -5 -4 -17 4 -25 16 -9 12 -16 19 -16 14 0 -5 -6 -4 -13
2 -7 6 -29 14 -48 16 -48 8 -60 11 -99 28 -21 9 -40 12 -46 6 -7 -5 -16 -3
-23 6 -12 14 -47 24 -111 32 -19 3 -37 9 -40 14 -3 5 -14 7 -25 6 -11 -2 -28
6 -37 18 -14 17 -20 18 -27 7 -7 -11 -10 -11 -17 1 -12 20 -64 33 -64 16 -1
-7 -9 -3 -19 10 -11 12 -28 22 -38 22 -10 0 -23 4 -28 9 -18 15 -74 30 -80 21
-3 -6 -16 -1 -28 11 -17 16 -33 19 -74 17 -29 -2 -53 -6 -53 -10 0 -5 -5 -8
-11 -8 -5 0 -7 4 -4 10 10 17 -9 35 -40 38 -16 1 -48 4 -70 7 -22 2 -47 0 -55
-5z m-12 -37 c12 -12 13 -18 4 -21 -19 -6 -3 -22 23 -22 18 0 23 4 19 15 -9
23 9 18 25 -7 l14 -22 10 24 c10 25 11 25 14 3 3 -15 9 -20 20 -16 10 4 14 2
10 -4 -4 -6 3 -8 17 -6 13 3 35 -3 50 -12 14 -9 43 -19 64 -21 21 -2 52 -9 68
-15 16 -7 36 -13 44 -14 30 -4 60 -17 60 -26 0 -5 13 -9 29 -9 16 0 34 -7 42
-16 8 -10 21 -13 36 -9 13 3 23 1 23 -5 0 -5 7 -10 16 -10 9 0 31 -7 50 -16
29 -14 37 -14 52 -3 15 12 16 12 5 -2 -11 -14 -6 -17 35 -28 26 -6 58 -13 71
-15 13 -2 27 -10 32 -17 5 -8 9 -9 9 -3 0 14 61 5 80 -12 9 -7 31 -15 50 -17
19 -2 54 -14 77 -25 24 -13 49 -19 59 -15 12 4 15 3 10 -5 -4 -8 -2 -10 7 -6
8 3 22 -3 32 -13 10 -10 23 -18 29 -18 18 -2 103 -43 110 -54 4 -5 13 -8 21
-4 9 3 15 -1 15 -10 0 -9 13 -18 32 -22 41 -9 69 -25 86 -48 7 -9 18 -15 23
-12 5 4 9 1 9 -4 0 -6 9 -11 20 -11 11 0 20 -6 20 -12 1 -7 25 -29 55 -48 30
-19 55 -38 55 -42 0 -4 7 -8 15 -8 8 0 15 -5 15 -11 0 -11 40 -48 53 -49 4 0
23 -16 41 -35 19 -19 40 -35 46 -35 13 0 70 -54 70 -67 0 -4 20 -30 45 -56 25
-27 45 -53 45 -58 0 -5 7 -9 15 -9 8 0 15 -7 15 -16 0 -8 13 -27 29 -42 15
-15 37 -43 47 -62 10 -19 25 -41 32 -48 6 -7 12 -20 12 -28 0 -8 6 -17 14 -20
8 -3 20 -20 27 -37 7 -18 21 -44 31 -59 10 -15 18 -44 18 -67 0 -28 5 -44 15
-47 8 -4 15 -10 15 -15 0 -15 34 -50 63 -65 15 -8 25 -19 22 -24 -4 -6 1 -10
10 -10 9 0 19 -9 22 -20 3 -11 9 -20 13 -20 17 0 160 -157 160 -175 0 -6 18
-28 41 -48 22 -20 38 -41 35 -46 -3 -5 1 -14 9 -21 8 -7 15 -18 15 -24 0 -6 9
-18 20 -26 11 -8 20 -20 20 -26 0 -6 9 -23 20 -36 10 -14 16 -28 13 -32 -3 -3
1 -6 9 -6 11 0 14 -7 11 -23 -3 -13 2 -30 9 -38 14 -14 30 -46 32 -64 5 -43
30 -113 39 -111 7 1 9 1 5 -1 -12 -7 -10 -61 2 -68 6 -4 9 -9 7 -13 -3 -4 -1
-38 4 -77 5 -46 4 -84 -4 -110 -12 -44 -62 -105 -84 -105 -8 0 -24 -5 -36 -12
-25 -14 -107 -19 -122 -8 -5 4 -30 7 -54 5 -32 -2 -49 3 -62 16 -18 18 -20 18
-26 3 -6 -15 -7 -14 -14 4 -8 21 -28 27 -71 24 -11 -1 -18 5 -18 16 0 18 -62
51 -83 44 -5 -1 -15 3 -23 9 -10 8 -18 8 -26 1 -9 -7 -17 -5 -28 6 -8 9 -15
19 -15 22 1 8 -69 30 -82 25 -7 -2 -17 3 -22 12 -5 11 -23 17 -49 17 -27 1
-38 5 -35 14 4 8 0 10 -11 6 -12 -4 -16 0 -16 15 0 12 -6 21 -15 21 -8 0 -15
-6 -15 -12 0 -10 -3 -9 -9 1 -6 9 -11 10 -15 2 -12 -19 -47 -13 -53 9 -6 22
-23 27 -23 8 0 -9 -3 -9 -9 1 -5 8 -25 19 -44 26 -38 13 -57 5 -57 -24 0 -14
-2 -14 -10 -1 -10 16 -15 14 -24 -15 -6 -22 8 -30 93 -56 44 -14 73 -43 32
-32 -12 3 -28 0 -36 -7 -15 -12 -36 -17 -98 -25 -15 -2 -40 -6 -55 -10 -15 -4
-40 -9 -56 -11 -15 -2 -34 -8 -41 -14 -10 -8 -20 -8 -36 0 -15 9 -23 9 -28 1
-4 -6 -20 -10 -36 -10 -17 0 -41 -2 -55 -5 -14 -2 -37 -5 -52 -5 -20 -1 -28
-6 -28 -18 0 -15 -2 -15 -9 -4 -13 20 -100 22 -110 3 -6 -10 -13 -12 -27 -5
-10 6 -44 11 -74 12 -30 2 -58 5 -62 7 -5 3 -8 -1 -8 -8 0 -10 -2 -10 -8 -1
-4 7 -29 12 -57 12 -81 -1 -215 12 -242 22 -14 5 -29 7 -34 4 -5 -3 -18 -1
-29 5 -11 6 -39 12 -63 14 -61 5 -116 17 -123 27 -3 5 -20 9 -37 9 -18 0 -45
9 -62 20 -33 22 -102 45 -124 41 -7 -1 -10 2 -7 8 4 6 -5 13 -21 17 -15 4 -38
13 -50 21 -17 11 -22 12 -26 1 -3 -8 -6 -6 -6 6 -1 12 -6 16 -16 12 -8 -3 -15
0 -15 6 0 14 -30 48 -42 48 -4 0 -8 -7 -8 -15 0 -8 -8 -15 -17 -15 -15 0 -15
2 -4 9 12 8 8 18 -22 54 -20 25 -37 52 -37 60 0 8 -7 17 -15 21 -8 3 -15 13
-15 23 0 10 -9 29 -20 43 -11 14 -20 30 -20 37 0 7 -11 28 -23 47 -13 19 -34
66 -46 104 -13 39 -32 80 -42 91 -10 11 -19 27 -19 35 0 8 -9 21 -21 29 -15
11 -17 16 -7 20 9 4 10 8 2 14 -6 4 -14 25 -18 46 -4 21 -16 53 -27 70 -10 18
-19 42 -19 54 0 12 -11 43 -25 68 -14 25 -23 50 -20 55 3 5 -1 20 -9 32 -8 13
-18 40 -21 61 -4 20 -11 37 -16 37 -4 0 -6 9 -4 19 2 11 -2 25 -10 31 -7 6
-11 20 -8 30 3 13 0 20 -8 20 -12 0 -12 2 -1 9 11 6 10 11 -3 25 -9 9 -13 16
-8 16 5 0 9 9 10 20 1 11 -3 20 -8 20 -6 0 -7 5 -4 10 3 6 0 12 -7 15 -9 4
-12 21 -9 56 2 33 -1 49 -7 45 -6 -4 -8 2 -5 14 3 11 1 20 -3 20 -10 0 -10
294 -1 400 3 36 10 78 16 94 6 15 11 33 10 40 -1 6 3 24 10 40 6 16 10 31 8
33 -3 2 10 19 27 37 47 50 76 89 76 104 0 7 4 11 8 8 4 -2 29 15 56 39 26 25
51 44 54 43 10 -2 82 35 82 42 0 3 8 6 18 7 50 5 97 21 94 32 -2 9 3 9 17 1
38 -20 60 11 36 50 -10 16 5 12 23 -7z m142 1 c0 -2 -9 -4 -21 -4 -11 0 -18 4
-14 10 5 8 35 3 35 -6z m-218 -16 c-7 -7 -12 -8 -12 -2 0 14 12 26 19 19 2 -3
-1 -11 -7 -17z m335 -10 c-3 -8 -6 -5 -6 6 -1 11 2 17 5 13 3 -3 4 -12 1 -19z
m-460 -30 c-3 -8 -6 -5 -6 6 -1 11 2 17 5 13 3 -3 4 -12 1 -19z m1100 -164
c-3 -3 -12 -4 -19 -1 -8 3 -5 6 6 6 11 1 17 -2 13 -5z m113 -48 c0 -3 -4 -8
-10 -11 -5 -3 -10 -1 -10 4 0 6 5 11 10 11 6 0 10 -2 10 -4z m183 -76 c3 -11
1 -20 -4 -20 -5 0 -9 9 -9 20 0 11 2 20 4 20 2 0 6 -9 9 -20z m317 -157 c0
-11 -3 -14 -8 -7 -4 6 -14 14 -22 17 -10 4 -8 6 8 6 15 1 22 -5 22 -16z m325
-123 c7 0 16 6 18 13 3 7 6 5 6 -5 1 -12 10 -18 29 -19 84 -4 111 -8 129 -17
11 -6 23 -9 26 -6 3 3 15 0 27 -6 12 -6 45 -14 73 -17 29 -3 54 -9 57 -13 3
-4 15 -6 28 -5 12 1 22 -2 22 -7 0 -4 11 -8 25 -8 14 0 25 -4 25 -10 0 -5 10
-10 23 -10 12 0 33 -7 45 -16 13 -9 33 -14 44 -10 14 3 27 -1 35 -12 11 -12
16 -14 19 -4 3 6 13 12 22 12 12 0 13 3 5 8 -7 4 -9 13 -4 21 10 16 22 -24 14
-46 -5 -12 -7 -12 -15 -1 -8 11 -9 11 -6 0 2 -8 15 -19 28 -26 14 -7 39 -20
56 -29 17 -9 34 -14 36 -11 3 3 8 -6 12 -20 6 -23 26 -36 74 -45 4 -1 1 -5 -7
-10 -11 -7 -7 -13 18 -25 18 -10 31 -24 31 -35 0 -10 7 -35 15 -55 17 -41 9
-68 -26 -87 -12 -6 -18 -17 -15 -25 3 -8 1 -14 -4 -14 -6 0 -10 7 -10 15 0 22
-21 18 -27 -4 -5 -22 -43 -36 -43 -17 0 9 -21 6 -71 -11 -39 -12 -75 -20 -80
-17 -5 3 -15 2 -21 -3 -14 -8 -24 -11 -53 -15 -11 -2 -23 -7 -26 -11 -4 -5
-18 -10 -31 -10 -15 -1 -24 -7 -21 -14 3 -7 -3 -10 -16 -6 -15 4 -21 1 -21
-11 0 -9 -4 -16 -9 -16 -11 0 -17 17 -26 78 -6 34 -11 42 -28 42 -21 0 -47 37
-47 68 0 7 -4 10 -10 7 -5 -3 -10 0 -10 8 0 8 -9 22 -20 32 -11 10 -20 23 -20
30 0 6 -11 18 -25 25 -19 10 -22 17 -14 31 8 16 6 19 -10 19 -24 0 -34 25 -15
40 8 7 14 18 14 24 0 6 -7 3 -14 -6 -14 -19 -36 -24 -36 -9 0 14 -42 56 -63
64 -9 4 -17 10 -16 14 3 20 -15 54 -26 49 -7 -2 -18 6 -25 20 -8 13 -19 24
-25 24 -6 0 -27 14 -45 30 -18 17 -37 30 -42 30 -9 0 -48 37 -48 45 0 3 18 5
40 3 22 -1 43 2 47 6 4 4 9 2 11 -3 2 -6 10 -11 17 -11z m365 -25 c7 -9 8 -15
2 -15 -5 0 -12 7 -16 15 -3 8 -4 15 -2 15 2 0 9 -7 16 -15z m191 -73 c-7 -2
-18 1 -23 6 -8 8 -4 9 13 5 13 -4 18 -8 10 -11z m-2941 -88 c0 -8 -19 -13 -24
-6 -3 5 1 9 9 9 8 0 15 -2 15 -3z m3345 -204 c3 -6 -1 -7 -9 -4 -18 7 -21 14
-7 14 6 0 13 -4 16 -10z m-175 -200 c0 -5 -2 -10 -4 -10 -3 0 -8 5 -11 10 -3
6 -1 10 4 10 6 0 11 -4 11 -10z m-3116 -65 c-4 -8 -10 -12 -15 -9 -14 8 -10
24 6 24 9 0 12 -6 9 -15z m2876 -21 c0 -8 4 -13 8 -10 5 3 36 8 70 10 l61 5 6
-30 c5 -21 11 -29 21 -25 8 3 14 -1 14 -9 0 -8 5 -15 10 -15 6 0 10 -7 10 -16
0 -8 5 -25 12 -37 19 -34 38 -90 38 -112 0 -12 4 -25 9 -30 18 -18 46 -219 34
-238 -3 -5 -14 10 -24 32 -10 23 -25 41 -34 41 -8 0 -15 9 -15 20 0 11 -4 20
-10 20 -5 0 -16 12 -24 28 -20 35 -71 92 -84 92 -5 0 -15 14 -21 30 -5 17 -17
30 -25 30 -9 0 -16 7 -16 15 0 9 -7 18 -15 21 -8 4 -15 12 -15 20 0 13 -11 18
-26 12 -7 -3 -28 42 -26 54 1 4 -5 5 -14 1 -14 -5 -15 -3 -4 17 7 13 21 33 32
44 10 11 16 26 14 33 -3 7 -1 13 4 13 6 0 10 -7 10 -16z m-2830 -74 c0 -13 -5
-18 -15 -14 -8 4 -15 10 -15 16 0 5 5 6 10 3 6 -3 10 -1 10 4 0 6 2 11 5 11 3
0 5 -9 5 -20z m-75 -121 c-5 -7 4 -8 28 -4 34 7 41 0 51 -47 0 -3 4 -9 8 -13
4 -4 4 -13 2 -20 -3 -7 2 -15 10 -18 8 -3 18 -25 21 -52 4 -25 11 -48 16 -51
5 -3 9 -16 9 -29 0 -13 8 -28 18 -34 9 -5 16 -12 15 -15 -7 -16 -2 -36 8 -30
7 4 9 0 5 -14 -6 -16 24 -96 60 -163 9 -16 -25 -15 -60 2 -20 10 -44 15 -52
12 -8 -3 -21 0 -29 7 -8 6 -19 9 -25 5 -6 -4 -28 2 -49 13 -25 13 -42 17 -48
11 -10 -10 -62 7 -74 24 -3 4 -17 4 -30 -1 -17 -7 -28 -6 -38 5 -8 9 -22 12
-37 9 -27 -7 -64 12 -64 33 0 11 -3 11 -15 1 -12 -10 -14 -8 -10 7 2 12 -2 20
-10 20 -8 0 -12 -4 -9 -9 3 -4 1 -8 -4 -8 -14 0 -52 36 -52 49 0 7 -14 11 -36
9 -42 -3 -54 11 -54 65 0 32 5 41 30 55 16 9 30 21 30 25 0 5 4 6 9 2 5 -3 12
4 16 15 4 11 12 20 18 19 11 -2 47 10 92 31 11 5 30 12 43 15 12 4 22 10 22
15 0 4 8 7 18 5 9 -1 21 0 27 3 5 3 16 7 25 8 48 8 95 25 102 38 5 9 11 16 14
16 3 0 2 -5 -1 -11z m3208 -99 c-3 -12 -8 -19 -11 -16 -5 6 5 36 12 36 2 0 2
-9 -1 -20z m-3686 -192 c-3 -8 -6 -5 -6 6 -1 11 2 17 5 13 3 -3 4 -12 1 -19z
m300 -180 c-3 -8 -6 -5 -6 6 -1 11 2 17 5 13 3 -3 4 -12 1 -19z m260 -24 c-3
-3 -12 -4 -19 -1 -8 3 -5 6 6 6 11 1 17 -2 13 -5z m88 -4 c3 -5 1 -10 -4 -10
-6 0 -11 5 -11 10 0 6 2 10 4 10 3 0 8 -4 11 -10z m-78 -56 c19 8 43 -4 43
-21 0 -12 8 -14 35 -9 19 4 35 3 35 -2 0 -5 20 -15 45 -22 26 -7 45 -18 45
-27 0 -8 5 -11 10 -8 9 6 12 2 14 -27 1 -7 19 -32 41 -55 48 -51 66 -72 63
-75 -1 -2 3 -12 10 -23 10 -17 13 -18 22 -5 9 12 10 11 5 -7 -4 -16 -1 -23 15
-28 11 -3 20 -11 20 -16 0 -5 5 -9 11 -9 6 0 9 7 6 14 -4 10 -1 13 9 9 9 -3
12 -12 9 -24 -4 -13 -1 -19 8 -19 8 0 17 -7 21 -15 3 -8 14 -15 24 -15 10 0
22 -4 28 -9 26 -25 88 -51 107 -46 18 5 19 4 7 -4 -12 -9 -11 -11 8 -11 12 0
25 -7 28 -15 4 -8 15 -15 26 -15 11 0 34 -6 51 -14 47 -22 138 -46 172 -46 50
1 115 -12 115 -21 0 -6 8 -5 19 1 14 7 21 6 24 -3 3 -9 8 -8 22 3 10 8 16 10
12 4 -9 -15 35 -23 158 -30 53 -3 119 -9 148 -14 29 -4 59 -4 67 0 8 5 43 7
78 5 34 -2 60 0 58 3 -2 4 32 8 77 9 45 1 83 5 84 10 2 5 25 8 51 7 26 -1 52
2 58 7 6 4 24 8 40 8 49 -2 223 29 234 41 3 3 18 6 34 7 16 0 31 5 35 10 3 6
18 13 34 17 16 4 27 13 27 24 0 9 3 13 8 7 4 -5 32 -11 62 -13 30 -2 62 -10
71 -18 8 -7 30 -14 47 -14 18 0 32 -4 32 -10 0 -5 7 -10 15 -10 8 0 15 -5 15
-11 0 -6 9 -8 20 -4 12 4 26 2 33 -3 24 -19 57 -21 58 -4 1 10 4 4 8 -13 4
-20 13 -31 26 -32 36 -2 65 -15 65 -28 0 -8 14 -16 30 -20 17 -4 30 -13 30
-22 0 -23 -79 -153 -123 -200 -44 -48 -132 -118 -141 -112 -9 6 -38 -40 -31
-50 3 -5 -9 -13 -27 -17 -18 -3 -49 -20 -68 -35 -19 -16 -40 -29 -47 -29 -6 0
-18 -6 -25 -12 -23 -22 -66 -41 -97 -42 -16 -1 -29 -5 -28 -11 1 -5 -5 -9 -15
-7 -9 1 -31 -6 -50 -17 -18 -10 -48 -22 -65 -26 -18 -4 -33 -10 -33 -15 0 -5
-13 -8 -30 -8 -16 1 -27 5 -24 9 3 5 -2 6 -10 3 -9 -3 -13 -10 -10 -15 3 -5
-10 -9 -28 -9 -19 0 -39 -5 -46 -12 -9 -9 -12 -9 -12 0 0 7 -11 12 -25 12 -14
0 -25 -4 -25 -9 0 -5 -15 -9 -32 -9 -18 0 -52 -7 -75 -16 -28 -10 -45 -11 -49
-5 -4 7 -20 8 -43 4 -20 -4 -40 -7 -46 -7 -5 1 -62 3 -126 5 -64 2 -121 7
-127 11 -6 3 -14 2 -17 -4 -4 -6 -16 -8 -26 -5 -11 4 -26 1 -34 -5 -12 -10
-15 -10 -15 0 0 8 -8 10 -25 6 -16 -4 -25 -2 -25 5 0 7 -10 9 -27 5 -17 -5
-29 -3 -35 6 -6 10 -10 10 -16 1 -13 -21 -60 -26 -77 -9 -9 8 -22 13 -30 10
-8 -4 -15 -2 -15 3 0 6 -12 15 -27 22 -21 10 -28 10 -31 1 -3 -9 -6 -9 -11 -1
-4 6 -29 13 -55 15 -26 2 -50 7 -53 10 -4 3 -17 6 -29 6 -13 0 -26 5 -29 10
-4 6 -11 7 -17 4 -6 -4 -14 0 -19 7 -6 11 -11 11 -21 1 -17 -17 -38 -15 -38 3
0 8 -9 15 -20 15 -12 0 -20 -7 -20 -17 0 -13 -5 -11 -18 10 -9 15 -24 27 -33
27 -10 0 -19 5 -21 11 -2 5 -11 11 -20 12 -9 2 -24 9 -33 17 -9 8 -25 14 -36
15 -11 1 -26 10 -34 21 -8 11 -15 14 -15 7 0 -20 -17 -15 -23 7 -3 13 -10 18
-21 14 -9 -3 -16 -1 -16 5 0 6 -17 19 -37 29 -21 9 -44 25 -51 35 -7 9 -20 17
-28 17 -8 0 -22 9 -31 20 -10 11 -23 20 -30 20 -6 0 -16 8 -21 17 -6 10 -22
16 -41 16 -22 0 -32 6 -37 21 -4 12 -15 27 -25 34 -11 7 -19 18 -19 24 0 12
-50 58 -63 58 -5 0 -5 4 -2 10 9 15 -14 50 -40 60 -16 6 -27 22 -35 50 -6 22
-19 55 -29 73 -10 17 -24 50 -31 72 -7 22 -17 46 -23 53 -11 13 -21 128 -20
232 0 69 17 129 43 158 12 12 18 22 14 22 -4 0 1 8 10 19 16 17 21 18 64 5 25
-8 52 -12 59 -10z m-220 -236 c-3 -8 -6 -5 -6 6 -1 11 2 17 5 13 3 -3 4 -12 1
-19z m783 -128 c0 -5 -4 -10 -10 -10 -5 0 -10 5 -10 10 0 6 5 10 10 10 6 0 10
-4 10 -10z m1110 -180 c0 -5 -2 -10 -4 -10 -3 0 -8 5 -11 10 -3 6 -1 10 4 10
6 0 11 -4 11 -10z m1115 0 c3 -5 1 -10 -4 -10 -6 0 -11 5 -11 10 0 6 2 10 4
10 3 0 8 -4 11 -10z m-345 -544 c0 -3 -4 -8 -10 -11 -5 -3 -10 -1 -10 4 0 6 5
11 10 11 6 0 10 -2 10 -4z m40 -92 c0 -2 -18 -22 -40 -46 -23 -24 -55 -64 -72
-90 -17 -27 -37 -48 -45 -48 -17 0 -93 -76 -112 -112 -8 -15 -18 -25 -22 -22
-13 7 -50 -16 -44 -27 4 -5 -3 -9 -14 -9 -25 0 -71 -20 -71 -32 0 -4 -9 -8
-19 -8 -11 0 -27 -9 -35 -21 -8 -12 -19 -18 -24 -15 -6 3 -16 1 -24 -6 -17
-17 -56 -35 -90 -42 -16 -4 -28 -11 -28 -16 0 -6 -14 -10 -31 -10 -17 0 -44
-9 -59 -20 -16 -11 -35 -17 -43 -14 -9 3 -25 0 -37 -6 -11 -6 -42 -13 -68 -15
-26 -2 -55 -6 -65 -10 -10 -4 -21 -5 -24 -1 -3 3 -13 0 -21 -6 -8 -7 -31 -11
-53 -9 -21 1 -44 -1 -51 -5 -6 -4 -37 -8 -68 -9 -31 -1 -62 -5 -70 -10 -9 -5
-11 -4 -6 3 10 17 -6 15 -32 -4 -12 -8 -22 -12 -22 -9 0 3 -10 1 -21 -6 -17
-9 -20 -8 -14 1 6 10 2 11 -16 7 -13 -3 -30 -2 -38 3 -9 5 -19 3 -28 -6 -8 -8
-18 -12 -22 -10 -4 3 -29 6 -55 7 -26 2 -49 6 -52 11 -3 4 -16 3 -29 -2 -16
-6 -25 -6 -25 0 0 6 -11 8 -25 4 -15 -4 -25 -2 -25 5 0 6 -5 11 -10 11 -6 0
-9 -6 -8 -12 2 -7 -7 -13 -19 -13 -12 0 -25 -4 -29 -8 -13 -13 -34 -7 -28 8 5
11 2 13 -10 9 -9 -3 -16 -10 -16 -15 0 -5 -9 -9 -20 -9 -11 0 -28 -8 -38 -17
-10 -10 -26 -22 -34 -28 -67 -44 -88 -63 -93 -84 -5 -18 -9 -21 -18 -12 -12
12 -28 15 -25 4 3 -19 -19 -48 -37 -50 -30 -2 -49 -8 -65 -18 -17 -11 -231
-14 -224 -3 2 3 -1 8 -8 10 -9 3 -7 16 7 49 27 59 28 192 3 229 -10 13 -18 30
-18 37 0 22 -42 103 -50 98 -5 -3 -12 9 -15 27 -9 39 -24 67 -47 89 -10 9 -18
22 -18 29 0 7 -11 27 -24 44 -13 17 -26 41 -30 54 -4 12 -12 22 -17 22 -5 0
-8 6 -7 13 2 6 -3 11 -10 9 -8 -1 -11 2 -8 7 3 5 0 21 -8 36 -9 17 -16 22 -19
13 -3 -7 -6 -4 -6 8 -1 12 5 26 12 31 33 26 245 -16 274 -54 7 -9 21 -17 32
-18 21 -1 53 -29 44 -38 -3 -4 6 -12 21 -18 14 -7 28 -21 32 -31 4 -13 12 -18
24 -15 13 3 16 0 13 -14 -4 -13 0 -19 11 -19 9 0 16 -6 16 -14 0 -8 7 -16 15
-20 8 -3 15 -13 15 -21 0 -9 4 -13 10 -10 5 3 28 -13 51 -36 37 -38 45 -41 97
-43 31 -1 63 3 70 9 55 43 151 156 146 170 -3 7 4 16 16 20 12 4 25 17 30 30
9 22 14 24 70 21 41 -3 68 -10 81 -22 16 -14 24 -16 38 -7 19 12 61 7 72 -9 3
-5 17 -4 32 1 14 6 29 6 32 2 3 -5 28 -8 55 -7 28 1 53 0 55 -4 2 -3 39 -5 82
-3 43 2 83 4 88 3 78 -5 152 -6 160 -1 6 3 28 6 50 6 30 0 39 4 37 15 -2 10 4
7 18 -7 22 -24 46 -30 52 -12 2 5 32 10 68 10 35 0 69 3 75 7 5 3 32 7 59 8
35 1 53 7 63 20 7 10 13 12 13 6 0 -15 36 -16 45 -2 3 6 13 10 22 10 8 0 29 6
46 14 70 29 89 36 106 36 10 0 24 6 30 14 7 8 24 15 39 16 75 4 90 5 86 9 -7
8 36 32 46 26 6 -3 10 -2 10 3 0 5 7 9 15 9 8 0 15 -2 15 -3z m-2340 -14 c0
-5 -7 -7 -15 -4 -8 4 -15 8 -15 10 0 2 7 4 15 4 8 0 15 -4 15 -10z m880 -120
c0 -5 -2 -10 -4 -10 -3 0 -8 5 -11 10 -3 6 -1 10 4 10 6 0 11 -4 11 -10z m925
-380 c3 -5 2 -10 -4 -10 -5 0 -13 5 -16 10 -3 6 -2 10 4 10 5 0 13 -4 16 -10z
m-1102 -155 c-7 -21 -13 -19 -13 6 0 11 4 18 10 14 5 -3 7 -12 3 -20z m-732
-198 c-10 -9 -11 -8 -5 6 3 10 9 15 12 12 3 -3 0 -11 -7 -18z m325 -9 l-16
-22 0 22 c0 13 4 20 10 17 6 -3 10 -1 10 6 0 7 3 10 6 6 3 -3 -1 -16 -10 -29z
m-230 -19 c3 -6 1 -16 -5 -22 -8 -8 -11 -6 -11 7 0 10 -4 14 -12 10 -7 -4 -8
-3 -4 4 9 15 23 15 32 1z"/>
<path d="M1846 3868 c-9 -13 -15 -17 -13 -9 4 28 -146 11 -176 -20 -16 -17
-30 -23 -48 -21 -3 1 -25 -17 -48 -39 -24 -21 -46 -37 -50 -34 -10 5 -46 -42
-55 -73 -4 -12 -12 -22 -17 -22 -5 0 -9 -7 -9 -15 0 -8 -4 -15 -9 -15 -18 0
-21 -33 -4 -47 17 -14 17 -14 -3 -10 -19 4 -22 -1 -28 -41 -3 -25 -11 -51 -17
-59 -16 -18 -16 -236 0 -241 6 -2 11 -17 11 -33 0 -41 20 -119 31 -119 5 0 12
-18 15 -40 4 -22 10 -40 14 -40 4 0 13 -18 20 -41 8 -22 22 -45 32 -50 10 -5
18 -19 18 -29 0 -14 7 -20 24 -20 19 0 22 -4 19 -24 -3 -13 0 -27 6 -30 6 -4
11 -1 11 6 1 7 6 4 13 -8 23 -40 66 -84 82 -84 8 0 18 -7 21 -15 4 -8 14 -15
25 -15 10 0 22 -6 26 -12 10 -15 66 -48 83 -48 6 0 8 6 4 13 -3 6 5 -1 18 -17
20 -23 30 -28 54 -23 16 3 41 -1 56 -9 15 -8 37 -13 50 -11 14 1 22 -3 20 -11
-1 -9 3 -10 15 -3 17 9 52 23 63 25 3 1 11 5 19 10 10 6 12 5 7 -2 -5 -8 0
-12 13 -12 12 0 21 5 21 10 0 6 14 10 30 10 20 0 30 5 30 15 0 8 7 15 15 15 8
0 37 23 65 50 28 28 54 50 58 50 4 0 13 9 20 21 8 12 9 18 3 14 -6 -3 -11 1
-11 10 0 10 7 15 18 13 11 -2 18 4 20 20 2 12 10 22 17 22 8 0 27 28 43 63 27
55 39 93 61 177 7 29 6 231 -1 275 -11 63 -33 131 -50 157 -10 14 -18 30 -18
36 0 5 -12 23 -27 40 -44 49 -54 61 -52 69 1 5 -8 12 -19 18 -12 5 -22 18 -24
28 -2 10 -7 17 -12 17 -5 -1 -13 5 -18 14 -5 9 -13 14 -19 11 -5 -4 -9 0 -9 8
0 8 -8 21 -19 31 -17 16 -19 15 -35 -6 -14 -20 -15 -20 -7 -2 9 18 3 25 -46
56 -46 30 -63 36 -104 34 -36 -2 -49 1 -49 11 0 11 -4 11 -21 2 -15 -7 -19 -8
-15 0 5 7 -4 9 -26 4 -18 -3 -35 -7 -37 -9 -2 -2 -10 3 -18 11 -20 21 -38 19
-57 -7z m118 -85 c4 -8 16 -11 37 -6 20 4 34 1 39 -6 5 -9 12 -8 25 6 17 17
18 17 12 1 -3 -10 -3 -18 1 -18 4 0 8 -35 9 -77 2 -42 7 -79 11 -82 13 -8 22
-112 9 -104 -5 3 -7 0 -5 -8 3 -8 10 -13 16 -12 5 1 13 -13 16 -31 8 -43 29
-60 75 -62 61 -3 63 -3 57 -19 -3 -9 0 -15 10 -15 9 0 13 7 10 23 -3 19 1 22
32 24 51 3 82 22 82 50 0 22 1 22 18 6 11 -11 15 -23 11 -29 -5 -6 -2 -20 6
-31 8 -12 19 -33 25 -48 9 -24 8 -27 -7 -21 -16 5 -16 4 1 -8 12 -10 16 -21
12 -32 -4 -10 -2 -21 5 -24 12 -8 14 -120 4 -205 -8 -66 -85 -223 -125 -254
-17 -13 -29 -30 -26 -37 3 -7 0 -11 -7 -8 -17 6 -87 -57 -87 -78 0 -14 -6 -16
-31 -11 -21 4 -34 1 -40 -8 -5 -8 -9 -9 -9 -4 0 11 -106 12 -148 2 -14 -4 -20
-2 -16 4 3 6 0 9 -7 8 -8 -2 -32 1 -54 6 -22 4 -44 7 -49 6 -5 -1 -12 2 -15 7
-3 5 -35 26 -71 46 -36 21 -68 42 -71 47 -3 5 -17 10 -31 11 -19 2 -24 7 -20
20 3 11 -3 20 -14 24 -11 4 -29 19 -41 33 -11 14 -27 26 -34 26 -8 0 -20 18
-29 41 -8 22 -23 52 -32 67 -10 14 -18 35 -18 47 0 11 -6 20 -14 20 -8 0 -16
16 -20 40 -3 22 -11 40 -16 40 -6 0 -10 18 -10 39 0 22 -5 41 -12 43 -8 3 -9
12 0 35 9 27 8 31 -4 26 -8 -3 -14 0 -14 6 0 6 4 11 9 11 5 0 4 20 -1 46 -11
51 1 94 26 94 8 0 17 4 20 9 4 5 -3 7 -14 4 -18 -5 -20 0 -20 35 0 23 5 44 10
47 6 3 10 13 10 21 0 20 72 113 88 113 7 1 15 8 18 16 4 8 19 15 34 15 28 0
54 19 28 21 -7 0 1 5 17 10 17 5 36 7 43 4 7 -3 10 -1 7 5 -7 11 31 33 64 36
13 2 26 5 29 8 11 12 182 1 186 -11z m286 -49 c0 -8 -5 -12 -10 -9 -6 4 -8 11
-5 16 9 14 15 11 15 -7z m-37 -28 c9 -7 17 -17 17 -21 0 -8 22 -28 64 -60 14
-11 26 -25 26 -32 0 -7 5 -12 12 -10 6 1 14 -7 16 -17 2 -10 13 -28 24 -40 19
-21 19 -21 -11 -30 -28 -8 -37 -23 -31 -51 1 -5 -2 -6 -7 -2 -4 5 -8 14 -8 20
0 14 -42 17 -74 6 -12 -5 -19 -13 -16 -19 4 -6 11 -8 16 -5 5 3 6 -1 3 -9 -3
-9 -9 -16 -13 -16 -15 0 -29 23 -24 38 4 10 2 13 -5 8 -7 -4 -10 -2 -6 7 3 8
-1 19 -9 25 -8 7 -12 23 -9 37 2 14 -1 31 -7 39 -6 7 -11 29 -10 47 0 19 -3
49 -7 67 -6 29 -4 32 17 32 13 0 32 -7 42 -14z m70 1 c3 -8 1 -20 -4 -28 -6
-10 -9 -7 -9 14 0 29 5 35 13 14z m-248 -1087 c3 -5 1 -10 -4 -10 -6 0 -11 5
-11 10 0 6 2 10 4 10 3 0 8 -4 11 -10z m105 0 c0 -5 -2 -10 -4 -10 -3 0 -8 5
-11 10 -3 6 -1 10 4 10 6 0 11 -4 11 -10z"/>
<path d="M1638 3712 c-13 -2 -18 -12 -17 -35 1 -24 3 -26 6 -9 2 12 12 22 21
22 9 0 23 4 30 9 11 6 10 9 -5 13 -10 2 -26 2 -35 0z"/>
<path d="M1822 3705 c-7 -8 -9 -15 -4 -15 5 0 15 7 22 15 16 19 -1 19 -18 0z"/>
<path d="M2050 3716 c0 -2 7 -6 15 -10 8 -3 15 -1 15 4 0 6 -7 10 -15 10 -8 0
-15 -2 -15 -4z"/>
<path d="M1680 3672 c0 -12 -5 -22 -11 -22 -5 0 -7 -5 -3 -11 4 -7 9 -7 13 -2
3 6 11 12 18 14 8 3 8 9 -3 23 -14 19 -14 19 -14 -2z"/>
<path d="M1865 3680 c-3 -5 -1 -10 4 -10 6 0 11 5 11 10 0 6 -2 10 -4 10 -3 0
-8 -4 -11 -10z"/>
<path d="M2045 3680 c-3 -5 -2 -10 4 -10 5 0 13 5 16 10 3 6 2 10 -4 10 -5 0
-13 -4 -16 -10z"/>
<path d="M1570 3650 c0 -5 4 -10 9 -10 6 0 13 5 16 10 3 6 -1 10 -9 10 -9 0
-16 -4 -16 -10z"/>
<path d="M1528 3618 c9 -9 15 -9 24 0 9 9 7 12 -12 12 -19 0 -21 -3 -12 -12z"/>
<path d="M1596 3615 c4 -8 7 -15 9 -15 2 0 5 7 9 15 3 9 0 15 -9 15 -9 0 -12
-6 -9 -15z"/>
<path d="M1696 3622 c-3 -6 -1 -14 5 -17 15 -10 25 3 12 16 -7 7 -13 7 -17 1z"/>
<path d="M1676 3583 c-6 -14 -5 -15 5 -6 7 7 10 15 7 18 -3 3 -9 -2 -12 -12z"/>
<path d="M1880 3593 c7 -3 7 -10 -2 -21 -11 -13 -11 -14 2 -10 18 6 20 30 2
34 -7 1 -8 0 -2 -3z"/>
<path d="M1477 3583 c-4 -3 -7 -11 -7 -17 0 -6 5 -5 12 2 6 6 9 14 7 17 -3 3
-9 2 -12 -2z"/>
<path d="M1526 3576 c3 -8 12 -12 20 -9 21 8 17 23 -6 23 -13 0 -18 -5 -14
-14z"/>
<path d="M1940 3581 c0 -5 5 -13 10 -16 6 -3 10 -2 10 4 0 5 -4 13 -10 16 -5
3 -10 2 -10 -4z"/>
<path d="M1796 3555 c6 -13 4 -16 -5 -10 -13 7 -31 -10 -31 -30 0 -5 4 -4 9 3
4 7 18 14 29 15 26 2 28 10 7 27 -13 11 -14 10 -9 -5z"/>
<path d="M1516 3547 c3 -10 9 -15 12 -12 3 3 0 11 -7 18 -10 9 -11 8 -5 -6z"/>
<path d="M1478 3543 c7 -3 16 -2 19 1 4 3 -2 6 -13 5 -11 0 -14 -3 -6 -6z"/>
<path d="M1615 3540 c-3 -5 -2 -10 4 -10 5 0 13 5 16 10 3 6 2 10 -4 10 -5 0
-13 -4 -16 -10z"/>
<path d="M1684 3521 c0 -9 8 -17 17 -17 18 0 15 22 -5 29 -6 3 -12 -3 -12 -12z"/>
<path d="M1901 3504 c0 -11 3 -14 6 -6 3 7 2 16 -1 19 -3 4 -6 -2 -5 -13z"/>
<path d="M1493 3461 c-1 -14 3 -18 13 -14 11 4 12 9 3 19 -15 18 -14 18 -16
-5z"/>
<path d="M1575 3470 c-3 -5 -1 -10 4 -10 6 0 11 5 11 10 0 6 -2 10 -4 10 -3 0
-8 -4 -11 -10z"/>
<path d="M1470 3394 c0 -8 5 -12 10 -9 6 3 10 10 10 16 0 5 -4 9 -10 9 -5 0
-10 -7 -10 -16z"/>
<path d="M1564 3401 c4 -5 0 -11 -6 -13 -8 -3 -4 -9 10 -17 14 -7 22 -8 22 -1
0 5 -4 10 -10 10 -5 0 -7 7 -4 15 4 8 1 15 -6 15 -6 0 -9 -4 -6 -9z"/>
<path d="M1600 3375 c0 -8 2 -15 4 -15 2 0 6 7 10 15 3 8 1 15 -4 15 -6 0 -10
-7 -10 -15z"/>
<path d="M1708 3378 c9 -9 15 -9 24 0 9 9 7 12 -12 12 -19 0 -21 -3 -12 -12z"/>
<path d="M1670 3361 c0 -5 8 -14 18 -20 14 -8 15 -12 5 -22 -19 -19 -16 -29
10 -29 18 0 19 2 7 10 -13 9 -13 12 2 23 15 12 14 15 -13 31 -16 9 -29 13 -29
7z"/>
<path d="M1587 3343 c-12 -11 -8 -23 8 -23 8 0 14 -6 13 -12 -2 -7 8 -14 21
-16 24 -4 24 -3 5 14 -10 10 -24 23 -30 31 -6 7 -14 10 -17 6z"/>
<path d="M1647 3338 c-3 -9 3 -14 14 -14 11 0 18 5 16 10 -5 16 -24 18 -30 4z"/>
<path d="M1526 3324 c-5 -14 -4 -15 9 -4 17 14 19 20 6 20 -5 0 -12 -7 -15
-16z"/>
<path d="M1567 3309 c7 -7 15 -10 18 -7 3 3 -2 9 -12 12 -14 6 -15 5 -6 -5z"/>
<path d="M2404 3294 c-10 -8 -13 -13 -6 -9 7 4 19 1 27 -5 16 -13 20 -3 7 17
-6 10 -12 10 -28 -3z"/>
<path d="M1505 3281 c-3 -6 11 -9 34 -8 22 0 37 5 35 9 -7 11 -62 10 -69 -1z"/>
<path d="M1470 3210 c0 -5 7 -10 15 -10 8 0 15 5 15 10 0 6 -7 10 -15 10 -8 0
-15 -4 -15 -10z"/>
<path d="M2628 3863 c-24 -4 -53 -26 -86 -67 -16 -20 -21 -144 -7 -154 6 -4
19 -24 29 -45 15 -29 28 -39 60 -48 46 -12 106 1 136 29 24 23 62 100 55 112
-3 5 -1 11 3 14 5 3 8 13 7 23 -2 19 -34 93 -35 81 0 -5 -9 1 -20 12 -24 24
-42 26 -34 5 4 -8 1 -15 -6 -15 -6 0 -9 4 -6 8 8 13 -32 52 -52 51 -9 -1 -29
-4 -44 -6z m108 -162 c-12 -19 -24 -12 -19 10 4 13 9 17 15 11 6 -6 7 -15 4
-21z"/>
<path d="M3107 3298 c16 -22 15 -68 -2 -68 -8 0 -15 5 -15 10 0 6 6 10 13 10
8 0 7 4 -3 10 -10 6 -11 10 -2 10 6 0 12 4 12 9 0 15 -54 9 -67 -8 -7 -9 -13
-41 -13 -71 0 -32 -9 -73 -20 -99 -11 -24 -20 -49 -20 -56 0 -7 -7 -15 -15
-19 -8 -3 -15 -12 -15 -20 0 -9 -6 -13 -14 -10 -8 3 -16 -4 -20 -20 -4 -18
-20 -32 -51 -46 -24 -11 -48 -20 -54 -20 -5 0 -17 -10 -25 -22 -9 -12 -16 -18
-16 -13 0 18 -20 -20 -20 -39 0 -16 5 -17 33 -12 17 4 33 11 35 16 2 5 10 6
18 3 31 -12 149 86 201 165 18 30 42 63 52 74 23 24 41 91 30 110 -12 17 -11
31 0 23 16 -9 23 35 11 66 -7 16 -19 29 -27 29 -11 0 -13 -4 -6 -12z m0 -163
c-7 -14 -15 -25 -19 -25 -13 0 -9 38 5 43 23 10 25 7 14 -18z"/>
<path d="M3303 3020 c-13 -6 -24 -21 -28 -42 -10 -43 -58 -162 -73 -180 -6 -8
-29 -21 -51 -28 -49 -16 -83 -80 -48 -92 21 -8 36 2 30 20 -6 14 -4 15 9 4 16
-13 48 -7 48 10 0 5 4 7 8 4 10 -6 52 39 52 55 0 6 9 23 20 39 11 15 16 30 12
34 -3 4 -1 10 5 14 6 4 13 23 17 42 3 19 10 55 15 80 5 25 9 46 8 46 -1 1 -12
-2 -24 -6z"/>
<path d="M3320 2901 c0 -6 4 -13 10 -16 6 -3 7 1 4 9 -7 18 -14 21 -14 7z"/>
<path d="M3455 2779 c-14 -41 -95 -156 -95 -134 0 4 -6 0 -14 -7 -17 -17 -30
-74 -19 -81 13 -8 88 27 91 43 5 19 51 80 61 80 5 0 8 10 7 23 -1 12 2 34 7
50 10 30 2 77 -12 77 -5 0 -17 -23 -26 -51z"/>
<path d="M3470 2650 c0 -5 5 -10 10 -10 6 0 10 5 10 10 0 6 -4 10 -10 10 -5 0
-10 -4 -10 -10z"/>
<path d="M1078 2743 c7 -3 16 -2 19 1 4 3 -2 6 -13 5 -11 0 -14 -3 -6 -6z"/>
<path d="M1230 2680 c0 -5 7 -7 15 -4 8 4 15 8 15 10 0 2 -7 4 -15 4 -8 0 -15
-4 -15 -10z"/>
<path d="M3620 1216 c0 -2 7 -7 16 -10 8 -3 12 -2 9 4 -6 10 -25 14 -25 6z"/>
<path d="M3208 963 c7 -3 16 -2 19 1 4 3 -2 6 -13 5 -11 0 -14 -3 -6 -6z"/>
<path d="M2770 830 c-8 -5 -11 -12 -7 -16 4 -4 13 -2 19 4 15 15 7 24 -12 12z"/>
</g>
</svg>
